<?xml version="1.0" standalone="no"?>
<!DOCTYPE svg PUBLIC "-//W3C//DTD SVG 1.1//EN"
  "http://www.w3.org/Graphics/SVG/1.1/DTD/svg11.dtd">
<svg version="1.1" xmlns="http://www.w3.org/2000/svg" xmlns:xlink="http://www.w3.org/1999/xlink" width="1792" height="1063" viewBox="-992 -32 1792 1063" id="ccdiagram"><filter id="grayscale"><feColorMatrix type="matrix" values="0.3333 0.3333 0.3333 0 0 0.3333 0.3333 0.3333 0 0 0.3333 0.3333 0.3333 0 0 0 0 0 1 0"></feColorMatrix></filter><defs><style type="text/css">@import url('https://fonts.googleapis.com/css?family=Open+Sans:400,700|Inconsolata:400');</style></defs><g><rect x="-992" y="-32" width="1792" height="1063" fill="none" id="interactionLayer"></rect><g style="pointer-events: none;"><g><pattern id="gridPatternMinor" x="0" y="37" width="128" height="74" patternUnits="userSpaceOnUse"><path d="M 0 0 L 128 74" stroke="#eeeeee" stroke-width="1"></path><path d="M 128 0 L 0 74" stroke="#eeeeee" stroke-width="1"></path></pattern><polygon points="0 0, 768 444, -192 999, -960 555" fill="url(#gridPatternMinor)"></polygon></g><polygon points="-960 555, -960 565, -192 1009, -192 999" stroke="#54626f" fill="#f9f9f9" stroke-linejoin="round" stroke-width="1"></polygon><polygon points="-192 1009, 768 454, 768 444, -192 999" stroke="#54626f" fill="#e2e2e2" stroke-linejoin="round" stroke-width="1"></polygon></g><g pointer-events="auto"><g opacity="1"><g><g><polygon points="-416 -55, -128 111, -128 148, -656 453, -720 453, -1008 287, -1008 250, -480 -55" fill="#ffffff" stroke-width="2" stroke="#eff2f5"></polygon><polygon points="-448 -37, -160 130, -688 435, -976 268" fill="#eff2f5"></polygon></g></g></g></g><g style="pointer-events: none;"><g><pattern id="gridPatternMajor" x="0" y="37" width="128" height="74" patternUnits="userSpaceOnUse"><path d="M 64 0 L 128 37 64 74 0 37 z" stroke="#54626f" stroke-width="1" fill="none"></path></pattern><polygon points="0 0, 768 444, -192 999, -960 555" fill="url(#gridPatternMajor)"></polygon></g></g><g pointer-events="auto"></g><g pointer-events="auto"></g><g></g><g pointer-events="auto"></g><g></g><g pointer-events="auto"><g opacity="1"><g id="c3648744-ac4a-4d7b-9e4a-09d5b82aa30f"><g><g><polygon transform="matrix(-0.707 -0.409 0.707 -0.409 0 0)" points="-565.3125 -1017.5625, -565.3125 -226.125, -113.0625 -226.125, -113.0625 -1017.5625" stroke-width="11.2" stroke="#00cc33" stroke-dasharray="16" fill="none"></polygon></g><g><polygon points="-80 139, -112 120, -336 250, -336 287" stroke="#00cc33" stroke-width="8" fill="#00cc33"></polygon><text font-family="Inconsolata" font-size="20pt" font-weight="bold" fill="#ffffff" transform="translate(-129 157) matrix(0.707 -0.409 0.707 0.409 0 0)" text-anchor="end">solarsystem_default</text><g transform="translate(-112 130) matrix(0.707 0.409 -0.707 0.409 0 0)"><svg width="21" height="32" style="fill: rgb(255, 255, 255);"><svg xmlns="http://www.w3.org/2000/svg" width="21" height="32" viewBox="0 0 21 32"><path d="M5.714 13.714h9.143v-3.429c0-2.518-2.054-4.571-4.571-4.571s-4.571 2.054-4.571 4.571v3.429zm14.857 1.715v10.286c0 .946-.768 1.714-1.714 1.714H1.714A1.715 1.715 0 0 1 0 25.715V15.429c0-.946.768-1.714 1.714-1.714h.571v-3.429c0-4.393 3.607-8 8-8s8 3.607 8 8v3.429h.571c.946 0 1.714.768 1.714 1.714z"></path></svg></svg></g></g></g></g></g><g opacity="1"><g id="d9cec08c-822d-4963-83ac-fde67c9c0d01"><g><g><polygon transform="matrix(-0.707 -0.409 0.707 -0.409 0 0)" points="-1132.434 -1153.2375, -1132.434 -203.51250000000002, -655.7625 -203.51250000000002, -655.7625 -1153.2375" stroke-width="11.2" stroke="#0033ff" stroke-dasharray="16" fill="none"></polygon></g><g><polygon points="320 352, 288 333, 64 463, 64 500" stroke="#0033ff" stroke-width="8" fill="#0033ff"></polygon><text font-family="Inconsolata" font-size="20pt" font-weight="bold" fill="#ffffff" transform="translate(271 369) matrix(0.707 -0.409 0.707 0.409 0 0)" text-anchor="end">selenium_default</text><g transform="translate(288 343) matrix(0.707 0.409 -0.707 0.409 0 0)"><svg width="21" height="32" style="fill: rgb(255, 255, 255);"><svg xmlns="http://www.w3.org/2000/svg" width="21" height="32" viewBox="0 0 21 32"><path d="M5.714 13.714h9.143v-3.429c0-2.518-2.054-4.571-4.571-4.571s-4.571 2.054-4.571 4.571v3.429zm14.857 1.715v10.286c0 .946-.768 1.714-1.714 1.714H1.714A1.715 1.715 0 0 1 0 25.715V15.429c0-.946.768-1.714 1.714-1.714h.571v-3.429c0-4.393 3.607-8 8-8s8 3.607 8 8v3.429h.571c.946 0 1.714.768 1.714 1.714z"></path></svg></svg></g></g></g></g></g></g><g pointer-events="auto"></g><g pointer-events="none"></g><g pointer-events="auto"><g id="9141b981-28c4-4d80-ad45-1ac1d07118dc-b67e3a57-ce75-4e7a-9f8c-1905043e7a4a"><g cursor="cell"><line x1="-32" y1="666" x2="-80" y2="638" stroke="red" stroke-width="8" opacity="0"></line><line x1="-32" y1="666" x2="-80" y2="638" stroke="#000000" stroke-width="2" stroke-linecap="round"></line></g></g><g id="e88cd5a9-d63d-4d02-a33d-f7fcbdf4e9df-c1cc1e78-fc3e-4038-b527-8d6c18a6c8d7"><g cursor="cell"><line x1="-589" y1="344" x2="-333" y2="316" stroke="red" stroke-width="8" opacity="0"></line><line x1="-589" y1="344" x2="-333" y2="316" stroke="#0033ff" stroke-width="2" stroke-dasharray="8,6" stroke-linecap="butt"></line><polygon points="-320 315, -346 311, -337 316, -342 324, -320 315" stroke-linejoin="round" fill="#0033ff" stroke="#0033ff" stroke-width="1"></polygon></g></g><g id="ab8dcc86-5419-4583-adff-a82a8bda3acf-ff0566c0-fa08-48aa-89d4-87ce3439ef14"><g cursor="cell"><line x1="352" y1="481" x2="432" y2="546" stroke="red" stroke-width="8" opacity="0"></line><line x1="352" y1="481" x2="432" y2="546" stroke="#000000" stroke-width="2" stroke-linecap="round"></line></g></g><g id="edfc39ec-e013-4e37-accf-7a1d106b836b-e88cd5a9-d63d-4d02-a33d-f7fcbdf4e9df"><g cursor="cell"><line x1="-519" y1="419" x2="-589" y2="344" stroke="red" stroke-width="8" opacity="0"></line><line x1="-519" y1="419" x2="-589" y2="344" stroke="#0033ff" stroke-width="2" stroke-dasharray="8,6" stroke-linecap="butt"></line><polygon points="-512 426, -514 410, -520 417, -534 416, -512 426" stroke-linejoin="round" fill="#0033ff" stroke="#0033ff" stroke-width="1"></polygon></g></g><g id="42235f58-bfc9-420a-a358-135380a18a33-c1cc1e78-fc3e-4038-b527-8d6c18a6c8d7"><g cursor="cell"><line x1="-336" y1="398" x2="-298" y2="376" stroke="red" stroke-width="8" opacity="0"></line><line x1="-336" y1="398" x2="-298" y2="376" stroke="#000000" stroke-width="2" stroke-linecap="round"></line><polygon points="-288 370, -314 375, -300 377, -297 385, -288 370" stroke-linejoin="round" fill="#000000" stroke="#000000" stroke-width="1"></polygon></g></g><g id="4c0d851b-1011-46b2-b2c6-aa765cb8da66-03b0ef95-e19b-408d-9e4a-5dc353e7b88c"><g cursor="cell"><line x1="224" y1="666" x2="96" y2="740" stroke="red" stroke-width="8" opacity="0"></line><line x1="224" y1="666" x2="96" y2="740" stroke="#000000" stroke-width="2" stroke-linecap="round"></line></g></g><g id="53e303c6-9277-406b-a581-cbd23cbfe83b-1e303a60-4b3a-47ab-9630-c2ef55717f98"><g cursor="cell"><line x1="-384" y1="814" x2="-664" y2="652" stroke="red" stroke-width="8" opacity="0"></line><line x1="-384" y1="814" x2="-664" y2="652" stroke="#000000" stroke-width="2" stroke-linecap="round"></line><polygon points="-674 647, -664 661, -661 654, -648 652, -674 647" stroke-linejoin="round" fill="#000000" stroke="#000000" stroke-width="1"></polygon></g></g><g id="bf64713c-7e7c-4707-988c-a492e14fa698-7fe95440-8c91-41a1-a4b3-f92986008e32"><g cursor="cell"><line x1="-400" y1="583" x2="-362" y2="561" stroke="red" stroke-width="8" opacity="0"></line><line x1="-400" y1="583" x2="-362" y2="561" stroke="#000000" stroke-width="2" stroke-linecap="round"></line><polygon points="-352 555, -378 560, -364 562, -361 570, -352 555" stroke-linejoin="round" fill="#000000" stroke="#000000" stroke-width="1"></polygon></g></g><g id="4c0d851b-1011-46b2-b2c6-aa765cb8da66-9bd71f6b-7ff5-4e50-9d92-ddbbf21db513"><g cursor="cell"><line x1="224" y1="666" x2="202" y2="653" stroke="red" stroke-width="8" opacity="0"></line><line x1="224" y1="666" x2="202" y2="653" stroke="#000000" stroke-width="2" stroke-linecap="round"></line><polygon points="192 648, 201 662, 204 655, 218 653, 192 648" stroke-linejoin="round" fill="#000000" stroke="#000000" stroke-width="1"></polygon></g></g><g id="7a93b80b-adc2-4d8e-b698-01ccddaa354e-f0fcddf2-36f4-49ff-b5b2-68403f1a53d4"><g cursor="cell"><line x1="560" y1="472" x2="578" y2="462" stroke="red" stroke-width="8" opacity="0"></line><line x1="560" y1="472" x2="578" y2="462" stroke="#000000" stroke-width="2" stroke-linecap="round"></line></g></g><g id="f003b48c-b8db-4bab-9efc-c573e3ee3d24-53e303c6-9277-406b-a581-cbd23cbfe83b"><g cursor="cell"><line x1="48" y1="564" x2="-384" y2="814" stroke="red" stroke-width="8" opacity="0"></line><line x1="48" y1="564" x2="-384" y2="814" stroke="#000000" stroke-width="2" stroke-linecap="round"></line></g></g><g id="9abbe936-2b37-4ec4-aeb8-e4b6596e1060-4c0d851b-1011-46b2-b2c6-aa765cb8da66"><g cursor="cell"><line x1="288" y1="629" x2="224" y2="666" stroke="red" stroke-width="8" opacity="0"></line><line x1="288" y1="629" x2="224" y2="666" stroke="#000000" stroke-width="2" stroke-linecap="round"></line></g></g><g id="f914d86a-e482-442a-9ed0-681835d6bcb2-edfc39ec-e013-4e37-accf-7a1d106b836b"><g cursor="cell"><line x1="-670" y1="390" x2="-525" y2="423" stroke="red" stroke-width="8" opacity="0"></line><line x1="-670" y1="390" x2="-525" y2="423" stroke="#0033ff" stroke-width="2" stroke-dasharray="8,6" stroke-linecap="butt"></line><polygon points="-512 426, -531 414, -528 422, -539 426, -512 426" stroke-linejoin="round" fill="#0033ff" stroke="#0033ff" stroke-width="1"></polygon></g></g><g id="9983c6dd-1ccb-4980-9cd2-1685c00637c7-edfc39ec-e013-4e37-accf-7a1d106b836b"><g cursor="cell"><line x1="-528" y1="509" x2="-490" y2="487" stroke="red" stroke-width="8" opacity="0"></line><line x1="-528" y1="509" x2="-490" y2="487" stroke="#000000" stroke-width="2" stroke-linecap="round"></line><polygon points="-480 481, -506 486, -492 488, -489 496, -480 481" stroke-linejoin="round" fill="#000000" stroke="#000000" stroke-width="1"></polygon></g></g><g id="8f881b17-87a9-4ad0-b950-7dfbc8d948fb-58579486-7a89-4053-8e17-3ed67f523ae9"><g cursor="cell"><line x1="-32" y1="814" x2="-32" y2="814" stroke="red" stroke-width="8" opacity="0"></line><line x1="-32" y1="814" x2="-32" y2="814" stroke="#000000" stroke-width="2" stroke-linecap="round"></line></g></g><g id="1e303a60-4b3a-47ab-9630-c2ef55717f98-fca11fea-7322-475f-9b14-53a52f3c818b"><g cursor="cell"><line x1="-674" y1="593" x2="-560" y2="527" stroke="red" stroke-width="8" opacity="0"></line><line x1="-674" y1="593" x2="-560" y2="527" stroke="#000000" stroke-width="2" stroke-linecap="round"></line></g></g><g id="03b0ef95-e19b-408d-9e4a-5dc353e7b88c-9141b981-28c4-4d80-ad45-1ac1d07118dc"><g cursor="cell"><line x1="96" y1="740" x2="74" y2="727" stroke="red" stroke-width="8" opacity="0"></line><line x1="96" y1="740" x2="74" y2="727" stroke="#000000" stroke-width="2" stroke-linecap="round"></line><polygon points="64 722, 73 736, 76 729, 90 727, 64 722" stroke-linejoin="round" fill="#000000" stroke="#000000" stroke-width="1"></polygon></g></g><g id="ff473eac-3265-416c-8437-aa64ba632cd6-4124bca3-e17a-4b14-a479-facb539149a9"><g cursor="cell"><line x1="-482" y1="630" x2="-432" y2="601" stroke="red" stroke-width="8" opacity="0"></line><line x1="-482" y1="630" x2="-432" y2="601" stroke="#000000" stroke-width="2" stroke-linecap="round"></line></g></g><g id="7fe95440-8c91-41a1-a4b3-f92986008e32-630b1ebb-144b-4af0-9b0f-80c92f190d06"><g cursor="cell"><line x1="-256" y1="500" x2="6" y2="348" stroke="red" stroke-width="8" opacity="0"></line><line x1="-256" y1="500" x2="6" y2="348" stroke="#000000" stroke-width="2" stroke-linecap="round"></line><polygon points="16 342, -10 348, 4 349, 7 357, 16 342" stroke-linejoin="round" fill="#000000" stroke="#000000" stroke-width="1"></polygon></g></g><g id="951ddc67-bf4b-41dc-8611-b03c53c81195-412c4305-3005-4ee7-8b7d-b00a9a97d199"><g cursor="cell"><line x1="-28" y1="283" x2="-305" y2="191" stroke="red" stroke-width="8" opacity="0"></line><line x1="-28" y1="283" x2="-305" y2="191" stroke="#0033ff" stroke-width="2" stroke-dasharray="8,6" stroke-linecap="butt"></line><polygon points="-16 287, -32 274, -31 282, -43 285, -16 287" stroke-linejoin="round" fill="#0033ff" stroke="#0033ff" stroke-width="1"></polygon><polygon points="-317 187, -302 200, -302 192, -290 188, -317 187" stroke-linejoin="round" fill="#0033ff" stroke="#0033ff" stroke-width="1"></polygon></g></g><g id="820bd81c-fc73-420e-a869-fff554d5a4d3-c1cc1e78-fc3e-4038-b527-8d6c18a6c8d7"><g cursor="cell"><line x1="-462" y1="270" x2="-332" y2="311" stroke="red" stroke-width="8" opacity="0"></line><line x1="-462" y1="270" x2="-332" y2="311" stroke="#0033ff" stroke-width="2" stroke-dasharray="8,6" stroke-linecap="butt"></line><polygon points="-320 315, -336 302, -335 310, -347 313, -320 315" stroke-linejoin="round" fill="#0033ff" stroke="#0033ff" stroke-width="1"></polygon></g></g><g id="5d73fbce-6de7-4a06-9be6-7ec3eef6e721-951ddc67-bf4b-41dc-8611-b03c53c81195"><g cursor="cell"><line x1="-237" y1="140" x2="-25" y2="281" stroke="red" stroke-width="8" opacity="0"></line><line x1="-237" y1="140" x2="-25" y2="281" stroke="#0033ff" stroke-width="2" stroke-dasharray="8,6" stroke-linecap="butt"></line><polygon points="-16 287, -24 272, -28 279, -41 280, -16 287" stroke-linejoin="round" fill="#0033ff" stroke="#0033ff" stroke-width="1"></polygon></g></g><g id="8f881b17-87a9-4ad0-b950-7dfbc8d948fb-f62ad80c-caa5-467a-810b-b613922390c9"><g cursor="cell"><line x1="-32" y1="814" x2="-54" y2="801" stroke="red" stroke-width="8" opacity="0"></line><line x1="-32" y1="814" x2="-54" y2="801" stroke="#000000" stroke-width="2" stroke-linecap="round"></line><polygon points="-64 796, -55 810, -52 803, -38 801, -64 796" stroke-linejoin="round" fill="#000000" stroke="#000000" stroke-width="1"></polygon></g></g><g id="4124bca3-e17a-4b14-a479-facb539149a9-bf64713c-7e7c-4707-988c-a492e14fa698"><g cursor="cell"><line x1="-432" y1="601" x2="-400" y2="583" stroke="red" stroke-width="8" opacity="0"></line><line x1="-432" y1="601" x2="-400" y2="583" stroke="#000000" stroke-width="2" stroke-linecap="round"></line></g></g><g id="9abbe936-2b37-4ec4-aeb8-e4b6596e1060-66eb4014-c95b-44ce-ad63-ddac0ffe92df"><g cursor="cell"><line x1="394" y1="568" x2="528" y2="490" stroke="red" stroke-width="8" opacity="0"></line><line x1="394" y1="568" x2="528" y2="490" stroke="#000000" stroke-width="2" stroke-linecap="round"></line><polygon points="384 574, 410 568, 396 566, 393 559, 384 574" stroke-linejoin="round" fill="#000000" stroke="#000000" stroke-width="1"></polygon></g></g><g id="66eb4014-c95b-44ce-ad63-ddac0ffe92df-7a93b80b-adc2-4d8e-b698-01ccddaa354e"><g cursor="cell"><line x1="528" y1="490" x2="560" y2="472" stroke="red" stroke-width="8" opacity="0"></line><line x1="528" y1="490" x2="560" y2="472" stroke="#000000" stroke-width="2" stroke-linecap="round"></line></g></g><g id="fca11fea-7322-475f-9b14-53a52f3c818b-9983c6dd-1ccb-4980-9cd2-1685c00637c7"><g cursor="cell"><line x1="-560" y1="527" x2="-528" y2="509" stroke="red" stroke-width="8" opacity="0"></line><line x1="-560" y1="527" x2="-528" y2="509" stroke="#000000" stroke-width="2" stroke-linecap="round"></line></g></g><g id="c1cc1e78-fc3e-4038-b527-8d6c18a6c8d7-12fe2bbc-ad47-489e-8c9c-b6e268d5ee8e"><g cursor="cell"><line x1="-224" y1="370" x2="-48" y2="379" stroke="red" stroke-width="8" opacity="0"></line><line x1="-224" y1="370" x2="-48" y2="379" stroke="#000000" stroke-width="2" stroke-linecap="round"></line></g></g><g id="f62ad80c-caa5-467a-810b-b613922390c9-d27a7967-8f86-4096-aef9-861ff91bfa86"><g cursor="cell"><line x1="-160" y1="740" x2="-208" y2="712" stroke="red" stroke-width="8" opacity="0"></line><line x1="-160" y1="740" x2="-208" y2="712" stroke="#000000" stroke-width="2" stroke-linecap="round"></line></g></g><g id="9bd71f6b-7ff5-4e50-9d92-ddbbf21db513-f003b48c-b8db-4bab-9efc-c573e3ee3d24"><g cursor="cell"><line x1="96" y1="592" x2="48" y2="564" stroke="red" stroke-width="8" opacity="0"></line><line x1="96" y1="592" x2="48" y2="564" stroke="#000000" stroke-width="2" stroke-linecap="round"></line></g></g><g id="03b0ef95-e19b-408d-9e4a-5dc353e7b88c-8f881b17-87a9-4ad0-b950-7dfbc8d948fb"><g cursor="cell"><line x1="96" y1="740" x2="-32" y2="814" stroke="red" stroke-width="8" opacity="0"></line><line x1="96" y1="740" x2="-32" y2="814" stroke="#000000" stroke-width="2" stroke-linecap="round"></line></g></g><g id="edfc39ec-e013-4e37-accf-7a1d106b836b-42235f58-bfc9-420a-a358-135380a18a33"><g cursor="cell"><line x1="-384" y1="426" x2="-336" y2="398" stroke="red" stroke-width="8" opacity="0"></line><line x1="-384" y1="426" x2="-336" y2="398" stroke="#000000" stroke-width="2" stroke-linecap="round"></line></g></g></g><g pointer-events="auto"><g opacity="1"><g id="ab8dcc86-5419-4583-adff-a82a8bda3acf" transform="translate(0 0)"><svg x="256" y="389" height="111" width="128" fill-rule="evenodd" stroke-linejoin="round" stroke-miterlimit="1.414" xml:space="preserve"><path d="M64 74v37l64-37V37L64 74Z" fill="#b8b8bb"></path><path d="M0 37v37l64 37V74L0 37Z" fill="#d2d2d4"></path><path d="M0 37 64 0l64 37-64 37L0 37Z" fill="#ececed"></path><path d="m64 73.407 62.111-35.86.514.889-62.487 36.078h-.276L.743 38.072l.514-.89L64 73.407Z" fill="#83838a"></path><path d="M63.486 74h1.027v36h-1.027z" fill="#83838a"></path><path d="M128 37v37l-64 37L0 74V37L64 0l64 37ZM2.054 38.185v34.63L64 108.627l61.946-35.812v-34.63L64 2.373 2.054 38.185Z" fill="#000000"></path></svg></g></g><g opacity="1"><g id="951ddc67-bf4b-41dc-8611-b03c53c81195" transform="translate(0 0)"><g><polygon points="48 250, 112 287, 48 324, -16 287" fill="#ececed"></polygon><polygon points="-16 324, 48 361, 48 324, -16 287" fill="#d2d2d4" stroke="#83838a"></polygon><polygon points="48 361, 112 324, 112 287, 48 324" fill="#b8b8bb" stroke="#83838a"></polygon><polygon points="48 250, -16 287, -16 324, 48 361, 112 324, 112 287" fill="none" stroke="#000000" stroke-width="2"></polygon></g></g></g><g opacity="1"><g id="9abbe936-2b37-4ec4-aeb8-e4b6596e1060" transform="translate(0 0)"><svg x="256" y="537" height="111" width="128" fill-rule="evenodd" stroke-linejoin="round" stroke-miterlimit="1.414" xml:space="preserve"><path d="M64 74v37l64-37V37L64 74Z" fill="#b8b8bb"></path><path d="M0 37v37l64 37V74L0 37Z" fill="#d2d2d4"></path><path d="M0 37 64 0l64 37-64 37L0 37Z" fill="#ececed"></path><path d="m64 73.407 62.111-35.86.514.889-62.487 36.078h-.276L.743 38.072l.514-.89L64 73.407Z" fill="#83838a"></path><path d="M63.486 74h1.027v36h-1.027z" fill="#83838a"></path><path d="M128 37v37l-64 37L0 74V37L64 0l64 37ZM2.054 38.185v34.63L64 108.627l61.946-35.812v-34.63L64 2.373 2.054 38.185Z" fill="#000000"></path></svg></g></g><g opacity="1"><g id="c1cc1e78-fc3e-4038-b527-8d6c18a6c8d7" transform="translate(0 0)"><svg x="-320" y="278" height="111" width="128" fill-rule="evenodd" stroke-linejoin="round" stroke-miterlimit="1.414" xml:space="preserve"><path d="M64 74v37l64-37V37L64 74Z" fill="#b8b8bb"></path><path d="M0 37v37l64 37V74L0 37Z" fill="#d2d2d4"></path><path d="M0 37 64 0l64 37-64 37L0 37Z" fill="#ececed"></path><path d="m64 73.407 62.111-35.86.514.889-62.487 36.078h-.276L.743 38.072l.514-.89L64 73.407Z" fill="#83838a"></path><path d="M63.486 74h1.027v36h-1.027z" fill="#83838a"></path><path d="M128 37v37l-64 37L0 74V37L64 0l64 37ZM2.054 38.185v34.63L64 108.627l61.946-35.812v-34.63L64 2.373 2.054 38.185Z" fill="#000000"></path></svg></g></g><g opacity="1"><g id="9bd71f6b-7ff5-4e50-9d92-ddbbf21db513" transform="translate(0 0)"><svg x="96" y="555" height="111" width="128" fill-rule="evenodd" stroke-linejoin="round" stroke-miterlimit="1.414" xml:space="preserve"><path d="M64 74v37l64-37V37L64 74Z" fill="#b8b8bb"></path><path d="M0 37v37l64 37V74L0 37Z" fill="#d2d2d4"></path><path d="M0 37 64 0l64 37-64 37L0 37Z" fill="#ececed"></path><path d="m64 73.407 62.111-35.86.514.889-62.487 36.078h-.276L.743 38.072l.514-.89L64 73.407Z" fill="#83838a"></path><path d="M63.486 74h1.027v36h-1.027z" fill="#83838a"></path><path d="M128 37v37l-64 37L0 74V37L64 0l64 37ZM2.054 38.185v34.63L64 108.627l61.946-35.812v-34.63L64 2.373 2.054 38.185Z" fill="#000000"></path></svg></g></g><g opacity="1"><g id="9141b981-28c4-4d80-ad45-1ac1d07118dc" transform="translate(0 0)"><svg x="-32" y="629" height="111" width="128" fill-rule="evenodd" stroke-linejoin="round" stroke-miterlimit="1.414" xml:space="preserve"><path d="M64 74v37l64-37V37L64 74Z" fill="#b8b8bb"></path><path d="M0 37v37l64 37V74L0 37Z" fill="#d2d2d4"></path><path d="M0 37 64 0l64 37-64 37L0 37Z" fill="#ececed"></path><path d="m64 73.407 62.111-35.86.514.889-62.487 36.078h-.276L.743 38.072l.514-.89L64 73.407Z" fill="#83838a"></path><path d="M63.486 74h1.027v36h-1.027z" fill="#83838a"></path><path d="M128 37v37l-64 37L0 74V37L64 0l64 37ZM2.054 38.185v34.63L64 108.627l61.946-35.812v-34.63L64 2.373 2.054 38.185Z" fill="#000000"></path></svg></g></g><g opacity="1"><g id="edfc39ec-e013-4e37-accf-7a1d106b836b" transform="translate(0 0)"><svg x="-512" y="389" height="111" width="128" fill-rule="evenodd" stroke-linejoin="round" stroke-miterlimit="1.414" xml:space="preserve"><path d="M64 74v37l64-37V37L64 74Z" fill="#b8b8bb"></path><path d="M0 37v37l64 37V74L0 37Z" fill="#d2d2d4"></path><path d="M0 37 64 0l64 37-64 37L0 37Z" fill="#ececed"></path><path d="m64 73.407 62.111-35.86.514.889-62.487 36.078h-.276L.743 38.072l.514-.89L64 73.407Z" fill="#83838a"></path><path d="M63.486 74h1.027v36h-1.027z" fill="#83838a"></path><path d="M128 37v37l-64 37L0 74V37L64 0l64 37ZM2.054 38.185v34.63L64 108.627l61.946-35.812v-34.63L64 2.373 2.054 38.185Z" fill="#000000"></path></svg></g></g><g opacity="1"><g id="7fe95440-8c91-41a1-a4b3-f92986008e32" transform="translate(0 0)"><svg x="-384" y="463" height="111" width="128" fill-rule="evenodd" stroke-linejoin="round" stroke-miterlimit="1.414" xml:space="preserve"><path d="M64 74v37l64-37V37L64 74Z" fill="#b8b8bb"></path><path d="M0 37v37l64 37V74L0 37Z" fill="#d2d2d4"></path><path d="M0 37 64 0l64 37-64 37L0 37Z" fill="#ececed"></path><path d="m64 73.407 62.111-35.86.514.889-62.487 36.078h-.276L.743 38.072l.514-.89L64 73.407Z" fill="#83838a"></path><path d="M63.486 74h1.027v36h-1.027z" fill="#83838a"></path><path d="M128 37v37l-64 37L0 74V37L64 0l64 37ZM2.054 38.185v34.63L64 108.627l61.946-35.812v-34.63L64 2.373 2.054 38.185Z" fill="#000000"></path></svg></g></g><g opacity="1"><g id="f62ad80c-caa5-467a-810b-b613922390c9" transform="translate(0 0)"><svg x="-160" y="703" height="111" width="128" fill-rule="evenodd" stroke-linejoin="round" stroke-miterlimit="1.414" xml:space="preserve"><path d="M64 74v37l64-37V37L64 74Z" fill="#b8b8bb"></path><path d="M0 37v37l64 37V74L0 37Z" fill="#d2d2d4"></path><path d="M0 37 64 0l64 37-64 37L0 37Z" fill="#ececed"></path><path d="m64 73.407 62.111-35.86.514.889-62.487 36.078h-.276L.743 38.072l.514-.89L64 73.407Z" fill="#83838a"></path><path d="M63.486 74h1.027v36h-1.027z" fill="#83838a"></path><path d="M128 37v37l-64 37L0 74V37L64 0l64 37ZM2.054 38.185v34.63L64 108.627l61.946-35.812v-34.63L64 2.373 2.054 38.185Z" fill="#000000"></path></svg></g></g></g><g pointer-events="auto"></g><g pointer-events="auto"><g opacity="1"><g id="1e303a60-4b3a-47ab-9630-c2ef55717f98" transform="translate(0 0)"><svg x="-720" y="620" overflow="visible"><g transform="scale(2.729575167846423) matrix(0.707 0.409 -0.707 0.409 0 0)"><circle cx="0" cy="0" fill="#050505" r="24"></circle><svg width="34" height="32" x="-17" y="-16" style="fill: rgb(255, 255, 255);"><svg xmlns="http://www.w3.org/2000/svg" width="34" height="32" viewBox="0 0 34 32"><path d="M34.286 20.571a6.858 6.858 0 0 1-6.857 6.857H8c-4.411 0-8-3.589-8-8a7.993 7.993 0 0 1 4.607-7.232c-.018-.25-.036-.518-.036-.768a9.137 9.137 0 0 1 9.143-9.143c3.821 0 7.089 2.339 8.464 5.679a4.439 4.439 0 0 1 2.964-1.107 4.58 4.58 0 0 1 4.571 4.571 4.49 4.49 0 0 1-.732 2.464c3.036.714 5.304 3.429 5.304 6.679z"></path></svg></svg></g></svg></g></g><g opacity="1"><g id="55396711-29d4-4bce-ac80-dbe119d8e32f" transform="translate(0 0)"><svg x="32" y="666" overflow="visible"><g transform="scale(0.8944271909999159) matrix(0.707 0.409 -0.707 0.409 0 0)"><circle cx="0" cy="0" fill="#050505" r="24"></circle><svg width="34" height="32" x="-17" y="-16" style="fill: rgb(255, 255, 255);"><svg xmlns="http://www.w3.org/2000/svg" width="34" height="32" viewBox="0 0 34 32"><path d="M15.946 0A15.89 15.89 0 0 1 24 2.143a16.031 16.031 0 0 1 6.286 6.643l-13.25-.696c-3.75-.214-7.321 1.893-8.554 5.429L3.553 5.948C6.624 2.127 11.232.019 15.946.002zM2.607 7.232l6.018 11.839c1.696 3.339 5.286 5.375 9 4.679l-4.107 8.054C5.857 30.625 0 24 0 16c0-3.232.964-6.25 2.607-8.768zm28.322 3.018c2.804 7.214 0 15.607-6.929 19.607a15.962 15.962 0 0 1-8.893 2.125l7.232-11.125c2.054-3.161 2.018-7.286-.429-10.143zM16 10.607c2.982 0 5.393 2.411 5.393 5.393S18.982 21.393 16 21.393 10.607 18.982 10.607 16s2.411-5.393 5.393-5.393z"></path></svg></svg></g></svg></g></g><g opacity="1"><g id="d5b0de27-86fd-496c-a692-78a2bc2e63f3" transform="translate(0 0)"><svg x="160" y="592" overflow="visible"><g transform="scale(0.8944271909999159) matrix(0.707 0.409 -0.707 0.409 0 0)"><circle cx="0" cy="0" fill="#050505" r="24"></circle><svg width="34" height="32" x="-17" y="-16" style="fill: rgb(255, 255, 255);"><svg xmlns="http://www.w3.org/2000/svg" width="34" height="32" viewBox="0 0 34 32"><path d="M15.946 0A15.89 15.89 0 0 1 24 2.143a16.031 16.031 0 0 1 6.286 6.643l-13.25-.696c-3.75-.214-7.321 1.893-8.554 5.429L3.553 5.948C6.624 2.127 11.232.019 15.946.002zM2.607 7.232l6.018 11.839c1.696 3.339 5.286 5.375 9 4.679l-4.107 8.054C5.857 30.625 0 24 0 16c0-3.232.964-6.25 2.607-8.768zm28.322 3.018c2.804 7.214 0 15.607-6.929 19.607a15.962 15.962 0 0 1-8.893 2.125l7.232-11.125c2.054-3.161 2.018-7.286-.429-10.143zM16 10.607c2.982 0 5.393 2.411 5.393 5.393S18.982 21.393 16 21.393 10.607 18.982 10.607 16s2.411-5.393 5.393-5.393z"></path></svg></svg></g></svg></g></g><g opacity="1"><g id="821cda2f-27fc-4987-8dc1-1ca52c6eef2c" transform="translate(0 0)"><svg x="-96" y="740" overflow="visible"><g transform="scale(0.8944271909999159) matrix(0.707 0.409 -0.707 0.409 0 0)"><circle cx="0" cy="0" fill="#050505" r="23"></circle><svg width="31" height="32" x="-15.5" y="-16" style="fill: rgb(255, 255, 255);"><svg xmlns="http://www.w3.org/2000/svg" width="31" height="32" viewBox="0 0 31 32"><path d="M16.125 32C9.232 32 3.75 27.964 1.232 22.196-1.589 15.785.661 5.517 5.678.982L5.482 6c.25-.321 2.161-.411 2.464 0C8.982 4.018 12.321 2.536 15 2.482c-1.018.857-3.375 3.982-3.179 5.571 1.304.411 3.304.429 4.357.5.321.179.268 1.268-.375 2.161 0 0-.839 1.161-3.107 1.571l.268 3.375-2.482-1.196c-.804 2.036 1.125 3.839 3.125 3.5 2.214-.375 3-1.821 4.554-1.732 1.536.089 2.143.946 1.946 1.75 0 0-.25.964-1.911.804-1.411 2.232-3.286 3.214-6.321 2.946 4.607 3.821 10.821.357 12.393-2.768 1.571-3.107.196-7.732-1.375-9.036 1.857.804 3.143 1.625 3.821 3.429.357-4-1.482-8.536-4.768-11.196C28.125 3.965 31.892 8.75 32 16.393S25.232 32 16.125 32z"></path></svg></svg></g></svg></g></g><g opacity="1"><g id="1f1f36f4-f218-4664-9619-e0b123db29d5" transform="translate(0 0)"><svg x="48" y="287" overflow="visible"><g transform="scale(0.8944271909999159) matrix(0.707 0.409 -0.707 0.409 0 0)"><circle cx="0" cy="0" fill="#050505" r="23"></circle><svg width="27" height="32" x="-13.5" y="-16" style="fill: rgb(255, 255, 255);"><svg xmlns="http://www.w3.org/2000/svg" width="27" height="32" viewBox="0 0 27 32"><path d="M13.714 13.714c5.375 0 10.768-.964 13.714-3.036v3.036c0 2.518-6.143 4.571-13.714 4.571S0 16.231 0 13.714v-3.036c2.946 2.071 8.339 3.036 13.714 3.036zm0 13.715c5.375 0 10.768-.964 13.714-3.036v3.036c0 2.518-6.143 4.571-13.714 4.571S0 29.946 0 27.429v-3.036c2.946 2.071 8.339 3.036 13.714 3.036zm0-6.858c5.375 0 10.768-.964 13.714-3.036v3.036c0 2.518-6.143 4.571-13.714 4.571S0 23.088 0 20.571v-3.036c2.946 2.071 8.339 3.036 13.714 3.036zm0-20.571c7.571 0 13.714 2.054 13.714 4.571v2.286c0 2.518-6.143 4.571-13.714 4.571S0 9.374 0 6.857V4.571C0 2.053 6.143 0 13.714 0z"></path></svg></svg></g></svg></g></g><g opacity="1"><g id="e88cd5a9-d63d-4d02-a33d-f7fcbdf4e9df" transform="translate(0 0)"><svg x="-608" y="333" overflow="visible"><g transform="scale(1.118033988749895) matrix(0.707 0.409 -0.707 0.409 0 0)"><circle cx="0" cy="0" fill="#050505" r="24"></circle><svg width="34" height="32" x="-17" y="-16" style="fill: rgb(255, 255, 255);"><svg xmlns="http://www.w3.org/2000/svg" width="34" height="32" viewBox="0 0 34 32"><path d="M31.804 16.625c0-.5-.554-.625-.946-.625H11.429c-.946 0-2.196.589-2.804 1.321l-5.25 6.482c-.161.214-.321.446-.321.714 0 .5.554.625.946.625h19.429c.946 0 2.196-.589 2.804-1.339l5.25-6.482c.161-.196.321-.429.321-.696zm-20.375-2.911h13.714v-2.857c0-.946-.768-1.714-1.714-1.714H13.143a1.715 1.715 0 0 1-1.714-1.714V6.286c0-.946-.768-1.714-1.714-1.714H4.001c-.946 0-1.714.768-1.714 1.714v15.232l4.571-5.625c1.036-1.268 2.946-2.179 4.571-2.179zm22.66 2.911c0 .786-.339 1.536-.821 2.143L28 25.25c-1.018 1.25-2.964 2.179-4.571 2.179H4c-2.196 0-4-1.804-4-4V6.286c0-2.196 1.804-4 4-4h5.714c2.196 0 4 1.804 4 4v.571h9.714c2.196 0 4 1.804 4 4v2.857h3.429c1.214 0 2.429.554 2.964 1.696.179.375.268.786.268 1.214z"></path></svg></svg></g></svg></g></g><g opacity="1"><g id="412c4305-3005-4ee7-8b7d-b00a9a97d199" transform="translate(0 0)"><svg x="-336" y="176" overflow="visible"><g transform="scale(1.118033988749895) matrix(0.707 0.409 -0.707 0.409 0 0)"><circle cx="0" cy="0" fill="#050505" r="24"></circle><svg width="34" height="32" x="-17" y="-16" style="fill: rgb(255, 255, 255);"><svg xmlns="http://www.w3.org/2000/svg" width="34" height="32" viewBox="0 0 34 32"><path d="M31.804 16.625c0-.5-.554-.625-.946-.625H11.429c-.946 0-2.196.589-2.804 1.321l-5.25 6.482c-.161.214-.321.446-.321.714 0 .5.554.625.946.625h19.429c.946 0 2.196-.589 2.804-1.339l5.25-6.482c.161-.196.321-.429.321-.696zm-20.375-2.911h13.714v-2.857c0-.946-.768-1.714-1.714-1.714H13.143a1.715 1.715 0 0 1-1.714-1.714V6.286c0-.946-.768-1.714-1.714-1.714H4.001c-.946 0-1.714.768-1.714 1.714v15.232l4.571-5.625c1.036-1.268 2.946-2.179 4.571-2.179zm22.66 2.911c0 .786-.339 1.536-.821 2.143L28 25.25c-1.018 1.25-2.964 2.179-4.571 2.179H4c-2.196 0-4-1.804-4-4V6.286c0-2.196 1.804-4 4-4h5.714c2.196 0 4 1.804 4 4v.571h9.714c2.196 0 4 1.804 4 4v2.857h3.429c1.214 0 2.429.554 2.964 1.696.179.375.268.786.268 1.214z"></path></svg></svg></g></svg></g></g><g opacity="1"><g id="5d73fbce-6de7-4a06-9be6-7ec3eef6e721" transform="translate(0 0)"><svg x="-256" y="130" overflow="visible"><g transform="scale(1.118033988749895) matrix(0.707 0.409 -0.707 0.409 0 0)"><circle cx="0" cy="0" fill="#050505" r="24"></circle><svg width="34" height="32" x="-17" y="-16" style="fill: rgb(255, 255, 255);"><svg xmlns="http://www.w3.org/2000/svg" width="34" height="32" viewBox="0 0 34 32"><path d="M31.804 16.625c0-.5-.554-.625-.946-.625H11.429c-.946 0-2.196.589-2.804 1.321l-5.25 6.482c-.161.214-.321.446-.321.714 0 .5.554.625.946.625h19.429c.946 0 2.196-.589 2.804-1.339l5.25-6.482c.161-.196.321-.429.321-.696zm-20.375-2.911h13.714v-2.857c0-.946-.768-1.714-1.714-1.714H13.143a1.715 1.715 0 0 1-1.714-1.714V6.286c0-.946-.768-1.714-1.714-1.714H4.001c-.946 0-1.714.768-1.714 1.714v15.232l4.571-5.625c1.036-1.268 2.946-2.179 4.571-2.179zm22.66 2.911c0 .786-.339 1.536-.821 2.143L28 25.25c-1.018 1.25-2.964 2.179-4.571 2.179H4c-2.196 0-4-1.804-4-4V6.286c0-2.196 1.804-4 4-4h5.714c2.196 0 4 1.804 4 4v.571h9.714c2.196 0 4 1.804 4 4v2.857h3.429c1.214 0 2.429.554 2.964 1.696.179.375.268.786.268 1.214z"></path></svg></svg></g></svg></g></g><g opacity="1"><g id="820bd81c-fc73-420e-a869-fff554d5a4d3" transform="translate(0 0)"><svg x="-480" y="259" overflow="visible"><g transform="scale(1.118033988749895) matrix(0.707 0.409 -0.707 0.409 0 0)"><circle cx="0" cy="0" fill="#050505" r="23"></circle><svg width="27" height="32" x="-13.5" y="-16" style="fill: rgb(255, 255, 255);"><svg xmlns="http://www.w3.org/2000/svg" width="27" height="32" viewBox="0 0 27 32"><path d="M26.214 6.786c.661.661 1.214 1.982 1.214 2.929v20.571c0 .946-.768 1.714-1.714 1.714h-24A1.715 1.715 0 0 1 0 30.286V1.715C0 .769.768.001 1.714.001h16c.946 0 2.268.554 2.929 1.214zm-7.928-4.357v6.714H25c-.107-.304-.268-.607-.393-.732l-5.589-5.589c-.125-.125-.429-.286-.732-.393zm6.857 27.285V11.428h-7.429A1.715 1.715 0 0 1 16 9.714V2.285H2.286v27.429h22.857z"></path></svg></svg></g></svg></g></g><g opacity="1"><g id="f914d86a-e482-442a-9ed0-681835d6bcb2" transform="translate(0 0)"><svg x="-688" y="379" overflow="visible"><g transform="scale(1.118033988749895) matrix(0.707 0.409 -0.707 0.409 0 0)"><circle cx="0" cy="0" fill="#050505" r="23"></circle><svg width="27" height="32" x="-13.5" y="-16" style="fill: rgb(255, 255, 255);"><svg xmlns="http://www.w3.org/2000/svg" width="27" height="32" viewBox="0 0 27 32"><path d="M26.214 6.786c.661.661 1.214 1.982 1.214 2.929v20.571c0 .946-.768 1.714-1.714 1.714h-24A1.715 1.715 0 0 1 0 30.286V1.715C0 .769.768.001 1.714.001h16c.946 0 2.268.554 2.929 1.214zm-7.928-4.357v6.714H25c-.107-.304-.268-.607-.393-.732l-5.589-5.589c-.125-.125-.429-.286-.732-.393zm6.857 27.285V11.428h-7.429A1.715 1.715 0 0 1 16 9.714V2.285H2.286v27.429h22.857z"></path></svg></svg></g></svg></g></g><g opacity="1"><g id="f0fcddf2-36f4-49ff-b5b2-68403f1a53d4" transform="translate(0 0)"><svg x="624" y="435" overflow="visible"><g transform="scale(2.729575167846423) matrix(0.707 0.409 -0.707 0.409 0 0)"><circle cx="0" cy="0" fill="#050505" r="24"></circle><svg width="34" height="32" x="-17" y="-16" style="fill: rgb(255, 255, 255);"><svg xmlns="http://www.w3.org/2000/svg" width="34" height="32" viewBox="0 0 34 32"><path d="M34.286 20.571a6.858 6.858 0 0 1-6.857 6.857H8c-4.411 0-8-3.589-8-8a7.993 7.993 0 0 1 4.607-7.232c-.018-.25-.036-.518-.036-.768a9.137 9.137 0 0 1 9.143-9.143c3.821 0 7.089 2.339 8.464 5.679a4.439 4.439 0 0 1 2.964-1.107 4.58 4.58 0 0 1 4.571 4.571 4.49 4.49 0 0 1-.732 2.464c3.036.714 5.304 3.429 5.304 6.679z"></path></svg></svg></g></svg></g></g><g opacity="1"><g id="ff473eac-3265-416c-8437-aa64ba632cd6" transform="translate(0 0)"><svg x="-528" y="657" overflow="visible"><g transform="scale(2.729575167846423) matrix(0.707 0.409 -0.707 0.409 0 0)"><circle cx="0" cy="0" fill="#050505" r="24"></circle><svg width="34" height="32" x="-17" y="-16" style="fill: rgb(255, 255, 255);"><svg xmlns="http://www.w3.org/2000/svg" width="34" height="32" viewBox="0 0 34 32"><path d="M34.286 20.571a6.858 6.858 0 0 1-6.857 6.857H8c-4.411 0-8-3.589-8-8a7.993 7.993 0 0 1 4.607-7.232c-.018-.25-.036-.518-.036-.768a9.137 9.137 0 0 1 9.143-9.143c3.821 0 7.089 2.339 8.464 5.679a4.439 4.439 0 0 1 2.964-1.107 4.58 4.58 0 0 1 4.571 4.571 4.49 4.49 0 0 1-.732 2.464c3.036.714 5.304 3.429 5.304 6.679z"></path></svg></svg></g></svg></g></g></g><g pointer-events="auto"><g opacity="1"><g id="b6e5f1a3-ab31-42a4-a6c5-dbe4304ec79a"><svg x="-560" y="416" overflow="visible"><text stroke="#ffffff" stroke-width="4" font-family="Open Sans" y="36.5" font-size="25pt" fill="#00cc33" font-weight="bold" transform="matrix(0.707 0.409 -0.707 0.409 0 0)" xml:space="preserve"><tspan x="8" dy="0">nginx</tspan></text><text font-family="Open Sans" y="36.5" font-size="25pt" fill="#00cc33" font-weight="bold" transform="matrix(0.707 0.409 -0.707 0.409 0 0)" xml:space="preserve"><tspan x="8" dy="0">nginx</tspan></text></svg></g></g><g opacity="1"><g id="4faff64c-335f-4a74-8657-7e2c429da65e"><svg x="-336" y="324" overflow="visible"><text stroke="#ffffff" stroke-width="4" font-family="Open Sans" y="36.5" font-size="25pt" fill="#00cc33" font-weight="bold" transform="matrix(0.707 0.409 -0.707 0.409 0 0)" xml:space="preserve"><tspan x="8" dy="0">php</tspan></text><text font-family="Open Sans" y="36.5" font-size="25pt" fill="#00cc33" font-weight="bold" transform="matrix(0.707 0.409 -0.707 0.409 0 0)" xml:space="preserve"><tspan x="8" dy="0">php</tspan></text></svg></g></g><g opacity="1"><g id="fa9e8fdc-b07a-492c-a339-20415b195ac9"><svg x="-416" y="500" overflow="visible"><text stroke="#ffffff" stroke-width="4" font-family="Open Sans" y="36.5" font-size="25pt" fill="#00cc33" font-weight="bold" transform="matrix(0.707 0.409 -0.707 0.409 0 0)" xml:space="preserve"><tspan x="8" dy="0">mongoexpress</tspan></text><text font-family="Open Sans" y="36.5" font-size="25pt" fill="#00cc33" font-weight="bold" transform="matrix(0.707 0.409 -0.707 0.409 0 0)" xml:space="preserve"><tspan x="8" dy="0">mongoexpress</tspan></text></svg></g></g><g opacity="1"><g id="64a14954-2274-4f28-a5b8-61e43b54ba47"><svg x="-560" y="472" overflow="visible"><text stroke="#ffffff" stroke-width="4" font-family="Open Sans" y="36.5" font-size="25pt" fill="#0033ff" font-weight="bold" transform="matrix(0.707 0.409 -0.707 0.409 0 0)" xml:space="preserve"><tspan x="8" dy="0">80</tspan></text><text font-family="Open Sans" y="36.5" font-size="25pt" fill="#0033ff" font-weight="bold" transform="matrix(0.707 0.409 -0.707 0.409 0 0)" xml:space="preserve"><tspan x="8" dy="0">80</tspan></text></svg></g></g><g opacity="1"><g id="dcc66036-4ba9-4bd7-8bfd-e712b2ec7f23"><svg x="-592" y="490" overflow="visible"><text stroke="#ffffff" stroke-width="4" font-family="Open Sans" y="36.5" font-size="25pt" fill="#0033ff" font-weight="bold" transform="matrix(0.707 0.409 -0.707 0.409 0 0)" xml:space="preserve"><tspan x="8" dy="0">80</tspan></text><text font-family="Open Sans" y="36.5" font-size="25pt" fill="#0033ff" font-weight="bold" transform="matrix(0.707 0.409 -0.707 0.409 0 0)" xml:space="preserve"><tspan x="8" dy="0">80</tspan></text></svg></g></g><g opacity="1"><g id="a247c2b9-f4f0-4c71-bbe2-78f3f024df05"><svg x="-304" y="379" overflow="visible"><text stroke="#ffffff" stroke-width="4" font-family="Open Sans" y="36.5" font-size="25pt" fill="#0033ff" font-weight="bold" transform="matrix(0.707 0.409 -0.707 0.409 0 0)" xml:space="preserve"><tspan x="8" dy="0">9000</tspan></text><text font-family="Open Sans" y="36.5" font-size="25pt" fill="#0033ff" font-weight="bold" transform="matrix(0.707 0.409 -0.707 0.409 0 0)" xml:space="preserve"><tspan x="8" dy="0">9000</tspan></text></svg></g></g><g opacity="1"><g id="3eb257b5-31b4-4b3d-b33d-79c2093de7bb"><svg x="-16" y="361" overflow="visible"><text stroke="#ffffff" stroke-width="4" font-family="Open Sans" y="36.5" font-size="25pt" fill="#0033ff" font-weight="bold" transform="matrix(0.707 0.409 -0.707 0.409 0 0)" xml:space="preserve"><tspan x="8" dy="0">27017</tspan></text><text font-family="Open Sans" y="36.5" font-size="25pt" fill="#0033ff" font-weight="bold" transform="matrix(0.707 0.409 -0.707 0.409 0 0)" xml:space="preserve"><tspan x="8" dy="0">27017</tspan></text></svg></g></g><g opacity="1"><g id="68f7af89-bddd-4d41-b5ae-0b13c3ef9d5c"><svg x="192" y="481" overflow="visible"><text stroke="#ffffff" stroke-width="4" font-family="Open Sans" y="36.5" font-size="25pt" fill="#0033ff" font-weight="bold" transform="matrix(0.707 0.409 -0.707 0.409 0 0)" xml:space="preserve"><tspan x="8" dy="0">selenium-hub</tspan></text><text font-family="Open Sans" y="36.5" font-size="25pt" fill="#0033ff" font-weight="bold" transform="matrix(0.707 0.409 -0.707 0.409 0 0)" xml:space="preserve"><tspan x="8" dy="0">selenium-hub</tspan></text></svg></g></g><g opacity="1"><g id="1508c07f-eefe-47cb-afe7-1ddf3640bd07"><svg x="-64" y="814" overflow="visible"><text stroke="#ffffff" stroke-width="4" font-family="Open Sans" y="36.5" font-size="25pt" fill="#0033ff" font-weight="bold" transform="matrix(0.707 0.409 -0.707 0.409 0 0)" xml:space="preserve"><tspan x="8" dy="0">firefox</tspan></text><text font-family="Open Sans" y="36.5" font-size="25pt" fill="#0033ff" font-weight="bold" transform="matrix(0.707 0.409 -0.707 0.409 0 0)" xml:space="preserve"><tspan x="8" dy="0">firefox</tspan></text></svg></g></g><g opacity="1"><g id="bda74a50-d114-403c-ad7a-b3876daffcea"><svg x="48" y="749" overflow="visible"><text stroke="#ffffff" stroke-width="4" font-family="Open Sans" y="36.5" font-size="25pt" fill="#0033ff" font-weight="bold" transform="matrix(0.707 0.409 -0.707 0.409 0 0)" xml:space="preserve"><tspan x="8" dy="0">edge</tspan></text><text font-family="Open Sans" y="36.5" font-size="25pt" fill="#0033ff" font-weight="bold" transform="matrix(0.707 0.409 -0.707 0.409 0 0)" xml:space="preserve"><tspan x="8" dy="0">edge</tspan></text></svg></g></g><g opacity="1"><g id="c3ce3de4-304f-405e-bf20-b1433a502d30"><svg x="160" y="666" overflow="visible"><text stroke="#ffffff" stroke-width="4" font-family="Open Sans" y="36.5" font-size="25pt" fill="#0033ff" font-weight="bold" transform="matrix(0.707 0.409 -0.707 0.409 0 0)" xml:space="preserve"><tspan x="8" dy="0">chrome</tspan></text><text font-family="Open Sans" y="36.5" font-size="25pt" fill="#0033ff" font-weight="bold" transform="matrix(0.707 0.409 -0.707 0.409 0 0)" xml:space="preserve"><tspan x="8" dy="0">chrome</tspan></text></svg></g></g><g opacity="1"><g id="96c6d727-9f1a-4958-8cbb-5b7f5f067dc3"><svg x="288" y="463" overflow="visible"><text stroke="#ffffff" stroke-width="4" font-family="Open Sans" y="36.5" font-size="25pt" fill="#00cc33" font-weight="bold" transform="matrix(0.707 0.409 -0.707 0.409 0 0)" xml:space="preserve"><tspan x="8" dy="0">maven</tspan></text><text font-family="Open Sans" y="36.5" font-size="25pt" fill="#00cc33" font-weight="bold" transform="matrix(0.707 0.409 -0.707 0.409 0 0)" xml:space="preserve"><tspan x="8" dy="0">maven</tspan></text></svg></g></g><g opacity="1"><g id="08d854f1-af31-4c15-a287-53a9741129db"><svg x="-64" y="278" overflow="visible"><text stroke="#ffffff" stroke-width="4" font-family="Open Sans" y="36.5" font-size="25pt" fill="#00cc33" font-weight="bold" transform="matrix(0.707 0.409 -0.707 0.409 0 0)" xml:space="preserve"><tspan x="8" dy="0">mongo</tspan></text><text font-family="Open Sans" y="36.5" font-size="25pt" fill="#00cc33" font-weight="bold" transform="matrix(0.707 0.409 -0.707 0.409 0 0)" xml:space="preserve"><tspan x="8" dy="0">mongo</tspan></text></svg></g></g><g opacity="1"><g id="1439bf48-76b5-4534-8a59-86e058e439d8"><svg x="-784" y="213" overflow="visible"><text stroke="#ffffff" stroke-width="4" font-family="Open Sans" y="30.799999999999997" font-size="20pt" fill="#050505" font-weight="bold" transform="matrix(0.707 0.409 -0.707 0.409 0 0)" xml:space="preserve"><tspan x="8" dy="0">./nginx/docroot</tspan></text><text font-family="Open Sans" y="30.799999999999997" font-size="20pt" fill="#050505" font-weight="bold" transform="matrix(0.707 0.409 -0.707 0.409 0 0)" xml:space="preserve"><tspan x="8" dy="0">./nginx/docroot</tspan></text></svg></g></g><g opacity="1"><g id="a5fa54f7-49f4-4eea-99ba-911910139c27"><svg x="-480" y="74" overflow="visible"><text stroke="#ffffff" stroke-width="4" font-family="Open Sans" y="30.799999999999997" font-size="20pt" fill="#050505" font-weight="bold" transform="matrix(0.707 0.409 -0.707 0.409 0 0)" xml:space="preserve"><tspan x="8" dy="0">mongodata</tspan></text><text font-family="Open Sans" y="30.799999999999997" font-size="20pt" fill="#050505" font-weight="bold" transform="matrix(0.707 0.409 -0.707 0.409 0 0)" xml:space="preserve"><tspan x="8" dy="0">mongodata</tspan></text></svg></g></g><g opacity="1"><g id="f97f98b8-352d-4bdb-ba75-d71291fa3326"><svg x="-448" y="0" overflow="visible"><text stroke="#ffffff" stroke-width="4" font-family="Open Sans" y="30.799999999999997" font-size="20pt" fill="#050505" font-weight="bold" transform="matrix(0.707 0.409 -0.707 0.409 0 0)" xml:space="preserve"><tspan x="8" dy="0">./mongodb/initdb</tspan></text><text font-family="Open Sans" y="30.799999999999997" font-size="20pt" fill="#050505" font-weight="bold" transform="matrix(0.707 0.409 -0.707 0.409 0 0)" xml:space="preserve"><tspan x="8" dy="0">./mongodb/initdb</tspan></text></svg></g></g><g opacity="1"><g id="918bb7ee-6eb6-4044-bfd0-fd733b9f9825"><svg x="-640" y="148" overflow="visible"><text stroke="#ffffff" stroke-width="4" font-family="Open Sans" y="30.799999999999997" font-size="20pt" fill="#050505" font-weight="bold" transform="matrix(0.707 0.409 -0.707 0.409 0 0)" xml:space="preserve"><tspan x="8" dy="0">./php/log.conf</tspan></text><text font-family="Open Sans" y="30.799999999999997" font-size="20pt" fill="#050505" font-weight="bold" transform="matrix(0.707 0.409 -0.707 0.409 0 0)" xml:space="preserve"><tspan x="8" dy="0">./php/log.conf</tspan></text></svg></g></g><g opacity="1"><g id="8590847c-5f35-44f0-9a92-31f8d153d2a9"><svg x="-880" y="250" overflow="visible"><text stroke="#ffffff" stroke-width="4" font-family="Open Sans" y="30.799999999999997" font-size="20pt" fill="#050505" font-weight="bold" transform="matrix(0.707 0.409 -0.707 0.409 0 0)" xml:space="preserve"><tspan x="8" dy="0">./nginx/site.conf</tspan></text><text font-family="Open Sans" y="30.799999999999997" font-size="20pt" fill="#050505" font-weight="bold" transform="matrix(0.707 0.409 -0.707 0.409 0 0)" xml:space="preserve"><tspan x="8" dy="0">./nginx/site.conf</tspan></text></svg></g></g><g opacity="1"><g id="1d23a795-53bc-48e7-85a3-67503c632c10" transform="translate(0 0)"><svg x="-912" y="305" overflow="visible"><text stroke="#ffffff" stroke-width="4" font-family="Open Sans" y="36.5" font-size="25pt" fill="#050505" font-weight="bold" transform="matrix(0.707 0.409 -0.707 0.409 0 0)" xml:space="preserve"><tspan x="8" dy="0">host filesystem</tspan></text><text font-family="Open Sans" y="36.5" font-size="25pt" fill="#050505" font-weight="bold" transform="matrix(0.707 0.409 -0.707 0.409 0 0)" xml:space="preserve"><tspan x="8" dy="0">host filesystem</tspan></text></svg></g></g><g opacity="1"><g id="c4d11b02-629e-4005-8a9d-b6d26793be70"><svg x="592" y="472" overflow="visible"><text stroke="#ffffff" stroke-width="4" font-family="Open Sans" y="36.5" font-size="25pt" fill="#0033ff" font-weight="bold" transform="matrix(0.707 0.409 -0.707 0.409 0 0)" xml:space="preserve"><tspan x="8" dy="0">4444</tspan></text><text font-family="Open Sans" y="36.5" font-size="25pt" fill="#0033ff" font-weight="bold" transform="matrix(0.707 0.409 -0.707 0.409 0 0)" xml:space="preserve"><tspan x="8" dy="0">4444</tspan></text></svg></g></g><g opacity="1"><g id="7c6bc283-4afc-4300-a200-2987bde340a6"><svg x="560" y="490" overflow="visible"><text stroke="#ffffff" stroke-width="4" font-family="Open Sans" y="36.5" font-size="25pt" fill="#0033ff" font-weight="bold" transform="matrix(0.707 0.409 -0.707 0.409 0 0)" xml:space="preserve"><tspan x="8" dy="0">4444</tspan></text><text font-family="Open Sans" y="36.5" font-size="25pt" fill="#0033ff" font-weight="bold" transform="matrix(0.707 0.409 -0.707 0.409 0 0)" xml:space="preserve"><tspan x="8" dy="0">4444</tspan></text></svg></g></g><g opacity="1"><g id="5ba9109b-7dd3-410a-b794-8075a3919fad"><svg x="-416" y="592" overflow="visible"><text stroke="#ffffff" stroke-width="4" font-family="Open Sans" y="36.5" font-size="25pt" fill="#0033ff" font-weight="bold" transform="matrix(0.707 0.409 -0.707 0.409 0 0)" xml:space="preserve"><tspan x="8" dy="0">8080</tspan></text><text font-family="Open Sans" y="36.5" font-size="25pt" fill="#0033ff" font-weight="bold" transform="matrix(0.707 0.409 -0.707 0.409 0 0)" xml:space="preserve"><tspan x="8" dy="0">8080</tspan></text></svg></g></g><g opacity="1"><g id="10873bbf-7515-4733-8978-ed9a0396487d"><svg x="-384" y="574" overflow="visible"><text stroke="#ffffff" stroke-width="4" font-family="Open Sans" y="36.5" font-size="25pt" fill="#0033ff" font-weight="bold" transform="matrix(0.707 0.409 -0.707 0.409 0 0)" xml:space="preserve"><tspan x="8" dy="0">8081</tspan></text><text font-family="Open Sans" y="36.5" font-size="25pt" fill="#0033ff" font-weight="bold" transform="matrix(0.707 0.409 -0.707 0.409 0 0)" xml:space="preserve"><tspan x="8" dy="0">8081</tspan></text></svg></g></g><g opacity="1"><g id="b660893c-b5bd-4f44-9319-013993c456a6"><svg x="410" y="475" overflow="visible"><text stroke="#ffffff" stroke-width="4" font-family="Open Sans" y="36.5" font-size="25pt" fill="#0033ff" font-weight="bold" transform="matrix(0.707 0.409 -0.707 0.409 0 0)" xml:space="preserve"><tspan x="8" dy="0">4444</tspan></text><text font-family="Open Sans" y="36.5" font-size="25pt" fill="#0033ff" font-weight="bold" transform="matrix(0.707 0.409 -0.707 0.409 0 0)" xml:space="preserve"><tspan x="8" dy="0">4444</tspan></text></svg></g></g><g opacity="1"><g id="dc1c5d6e-e9c9-4a1d-b852-db7e71ecfeb4" transform="translate(0 0)"><svg x="288" y="629" overflow="visible"><text stroke="#ffffff" stroke-width="4" font-family="Open Sans" y="36.5" font-size="25pt" fill="#0033ff" font-weight="bold" transform="matrix(0.707 0.409 -0.707 0.409 0 0)" xml:space="preserve"><tspan x="8" dy="0">4442</tspan><tspan x="8" dy="1.1em">4443</tspan></text><text font-family="Open Sans" y="36.5" font-size="25pt" fill="#0033ff" font-weight="bold" transform="matrix(0.707 0.409 -0.707 0.409 0 0)" xml:space="preserve"><tspan x="8" dy="0">4442</tspan><tspan x="8" dy="1.1em">4443</tspan></text></svg></g></g></g><g pointer-events="auto"><g></g><g></g><g></g><g></g><g></g><g></g><g></g><g></g><g></g><g></g></g></g></svg>
