<?xml version="1.0" standalone="no"?>
<!DOCTYPE svg PUBLIC "-//W3C//DTD SVG 1.1//EN"
  "http://www.w3.org/Graphics/SVG/1.1/DTD/svg11.dtd">
<svg version="1.1" xmlns="http://www.w3.org/2000/svg" xmlns:xlink="http://www.w3.org/1999/xlink" width="1792" height="1063" viewBox="-992 -32 1792 1063" id="ccdiagram"><filter id="grayscale"><feColorMatrix type="matrix" values="0.3333 0.3333 0.3333 0 0 0.3333 0.3333 0.3333 0 0 0.3333 0.3333 0.3333 0 0 0 0 0 1 0"></feColorMatrix></filter><defs><style type="text/css">@import url('https://fonts.googleapis.com/css?family=Open+Sans:400,700|Inconsolata:400');</style></defs><g><g style="pointer-events: none;"><g><pattern id="gridPatternMinor" x="0" y="37" width="128" height="74" patternUnits="userSpaceOnUse"><path d="M 0 0 L 128 74" stroke="#eee" stroke-width="1"></path><path d="M 128 0 L 0 74" stroke="#eee" stroke-width="1"></path></pattern><polygon points="0 0, 768 444, -192 999, -960 555" fill="url(#gridPatternMinor)"></polygon></g><polygon points="-960 555, -960 565, -192 1009, -192 999" stroke-linejoin="round" stroke="#54626f" stroke-width="1" fill="#f9f9f9"></polygon><polygon points="-192 1009, 768 454, 768 444, -192 999" stroke-linejoin="round" stroke="#54626f" stroke-width="1" fill="#e2e2e2"></polygon></g><g pointer-events="auto"><g opacity="1"><g><g><polygon points="-482 -204, -146 -29, -144 9, -672 315, -736 315, -1088 111, -1086 73, -542 -205" fill="#ffffff" stroke-width="2" stroke="#818181"></polygon><polygon points="-512 -185, -176 -9, -704 296, -1056 93" fill="#eff2f5" stroke-width="0" stroke="#818181"></polygon></g></g></g></g><g style="pointer-events: none;"><g><pattern id="gridPatternMajor" x="0" y="37" width="128" height="74" patternUnits="userSpaceOnUse"><path d="M 64 0 L 128 37 64 74 0 37 z" stroke="#54626f" stroke-width="1" fill="none"></path></pattern><polygon points="0 0, 768 444, -192 999, -960 555" fill="url(#gridPatternMajor)"></polygon></g></g><g pointer-events="auto"></g><g></g><g pointer-events="auto"></g><g></g><g pointer-events="auto"><g opacity="1"><g id="c3648744-ac4a-4d7b-9e4a-09d5b82aa30f"><g><g><polygon transform="matrix(-0.707 -0.409 0.707 -0.409 0 0)" points="-497.475 -994.95, -497.475 -113.0625, 45.225 -113.0625, 45.225 -994.95" stroke-width="11.2" stroke="#da10ab" stroke-dasharray="16" fill="none"></polygon></g><g><polygon points="-112 28, -144 9, -368 139, -368 176" stroke="#da10ab" stroke-width="8" fill="#da10ab"></polygon><text font-family="Inconsolata" font-size="20pt" font-weight="bold" fill="#ffffff" transform="translate(-161 46) matrix(0.707 -0.409 0.707 0.409 0 0)" text-anchor="end">solarsystem_default</text><g transform="translate(-144 19) matrix(0.707 0.409 -0.707 0.409 0 0)"><svg width="21" height="32" style="fill: rgb(255, 255, 255);"><svg xmlns="http://www.w3.org/2000/svg" width="21" height="32" viewBox="0 0 21 32"><path d="M5.714 13.714h9.143v-3.429c0-2.518-2.054-4.571-4.571-4.571s-4.571 2.054-4.571 4.571v3.429zm14.857 1.715v10.286c0 .946-.768 1.714-1.714 1.714H1.714A1.715 1.715 0 0 1 0 25.715V15.429c0-.946.768-1.714 1.714-1.714h.571v-3.429c0-4.393 3.607-8 8-8s8 3.607 8 8v3.429h.571c.946 0 1.714.768 1.714 1.714z"></path></svg></svg></g></g></g></g></g><g opacity="1"><g id="d9cec08c-822d-4963-83ac-fde67c9c0d01"><g><g><polygon transform="matrix(-0.707 -0.409 0.707 -0.409 0 0)" points="-1130.625 -1198.4625, -1130.625 0, -565.3125 0, -565.3125 -1198.4625" stroke-width="11.2" stroke="#00b0e6" stroke-dasharray="16" fill="none"></polygon></g><g><polygon points="400 231, 368 213, 144 342, 144 379" stroke="#00b0e6" stroke-width="8" fill="#00b0e6"></polygon><text font-family="Inconsolata" font-size="20pt" font-weight="bold" fill="#ffffff" transform="translate(351 249) matrix(0.707 -0.409 0.707 0.409 0 0)" text-anchor="end">selenium_default</text><g transform="translate(368 223) matrix(0.707 0.409 -0.707 0.409 0 0)"><svg width="21" height="32" style="fill: rgb(255, 255, 255);"><svg xmlns="http://www.w3.org/2000/svg" width="21" height="32" viewBox="0 0 21 32"><path d="M5.714 13.714h9.143v-3.429c0-2.518-2.054-4.571-4.571-4.571s-4.571 2.054-4.571 4.571v3.429zm14.857 1.715v10.286c0 .946-.768 1.714-1.714 1.714H1.714A1.715 1.715 0 0 1 0 25.715V15.429c0-.946.768-1.714 1.714-1.714h.571v-3.429c0-4.393 3.607-8 8-8s8 3.607 8 8v3.429h.571c.946 0 1.714.768 1.714 1.714z"></path></svg></svg></g></g></g></g></g></g><g pointer-events="auto"></g><g pointer-events="none"></g><g pointer-events="auto"><g><g cursor="cell"><line x1="-576" y1="444" x2="-522" y2="413" stroke="red" stroke-width="8" opacity="0"></line><line x1="-576" y1="444" x2="-522" y2="413" stroke="#000000" stroke-width="2" stroke-linecap="round"></line><polygon points="-512 407, -538 412, -524 414, -521 422, -512 407" stroke-linejoin="round" fill="#000000" stroke="#000000" stroke-width="1"></polygon></g></g><g><g cursor="cell"><line x1="80" y1="731" x2="26" y2="699" stroke="red" stroke-width="8" opacity="0"></line><line x1="80" y1="731" x2="26" y2="699" stroke="#000000" stroke-width="2" stroke-linecap="round"></line><polygon points="16 694, 25 709, 28 701, 42 699, 16 694" stroke-linejoin="round" fill="#000000" stroke="#000000" stroke-width="1"></polygon></g></g><g><g cursor="cell"><line x1="-608" y1="537" x2="-512" y2="555" stroke="red" stroke-width="8" opacity="0"></line><line x1="-608" y1="537" x2="-512" y2="555" stroke="#000000" stroke-width="2" stroke-linecap="round"></line></g></g><g><g cursor="cell"><line x1="-368" y1="324" x2="-330" y2="302" stroke="red" stroke-width="8" opacity="0"></line><line x1="-368" y1="324" x2="-330" y2="302" stroke="#000000" stroke-width="2" stroke-linecap="round"></line><polygon points="-320 296, -346 301, -332 303, -329 311, -320 296" stroke-linejoin="round" fill="#000000" stroke="#000000" stroke-width="1"></polygon></g></g><g><g cursor="cell"><line x1="-80" y1="638" x2="-128" y2="611" stroke="red" stroke-width="8" opacity="0"></line><line x1="-80" y1="638" x2="-128" y2="611" stroke="#000000" stroke-width="2" stroke-linecap="round"></line></g></g><g><g cursor="cell"><line x1="451" y1="408" x2="471" y2="420" stroke="red" stroke-width="8" opacity="0"></line><line x1="451" y1="408" x2="471" y2="420" stroke="#000000" stroke-width="2" stroke-linecap="round"></line><polygon points="480 426, 471 411, 468 418, 455 420, 480 426" stroke-linejoin="round" fill="#000000" stroke="#000000" stroke-width="1"></polygon></g></g><g><g cursor="cell"><line x1="208" y1="657" x2="154" y2="625" stroke="red" stroke-width="8" opacity="0"></line><line x1="208" y1="657" x2="154" y2="625" stroke="#000000" stroke-width="2" stroke-linecap="round"></line><polygon points="144 620, 153 635, 156 627, 170 625, 144 620" stroke-linejoin="round" fill="#000000" stroke="#000000" stroke-width="1"></polygon></g></g><g><g cursor="cell"><line x1="-208" y1="712" x2="-256" y2="685" stroke="red" stroke-width="8" opacity="0"></line><line x1="-208" y1="712" x2="-256" y2="685" stroke="#000000" stroke-width="2" stroke-linecap="round"></line></g></g><g><g cursor="cell"><line x1="-288" y1="0" x2="-55" y2="206" stroke="red" stroke-width="8" opacity="0"></line><line x1="-288" y1="0" x2="-55" y2="206" stroke="#00b0e6" stroke-width="2" stroke-dasharray="8,6" stroke-linecap="butt"></line><polygon points="-48 213, -52 197, -58 204, -71 204, -48 213" stroke-linejoin="round" fill="#00b0e6" stroke="#00b0e6" stroke-width="1"></polygon></g></g><g><g cursor="cell"><line x1="-416" y1="352" x2="-368" y2="324" stroke="red" stroke-width="8" opacity="0"></line><line x1="-416" y1="352" x2="-368" y2="324" stroke="#000000" stroke-width="2" stroke-linecap="round"></line></g></g><g><g cursor="cell"><line x1="-640" y1="204" x2="-365" y2="239" stroke="red" stroke-width="8" opacity="0"></line><line x1="-640" y1="204" x2="-365" y2="239" stroke="#00b0e6" stroke-width="2" stroke-dasharray="8,6" stroke-linecap="butt"></line><polygon points="-352 241, -374 231, -369 238, -379 244, -352 241" stroke-linejoin="round" fill="#00b0e6" stroke="#00b0e6" stroke-width="1"></polygon></g></g><g><g cursor="cell"><line x1="176" y1="490" x2="128" y2="463" stroke="red" stroke-width="8" opacity="0"></line><line x1="176" y1="490" x2="128" y2="463" stroke="#000000" stroke-width="2" stroke-linecap="round"></line></g></g><g><g cursor="cell"><line x1="128" y1="463" x2="-368" y2="749" stroke="red" stroke-width="8" opacity="0"></line><line x1="128" y1="463" x2="-368" y2="749" stroke="#000000" stroke-width="2" stroke-linecap="round"></line></g></g><g><g cursor="cell"><line x1="-720" y1="250" x2="-554" y2="346" stroke="red" stroke-width="8" opacity="0"></line><line x1="-720" y1="250" x2="-554" y2="346" stroke="#00b0e6" stroke-width="2" stroke-dasharray="8,6" stroke-linecap="butt"></line><polygon points="-544 352, -553 337, -556 344, -570 346, -544 352" stroke-linejoin="round" fill="#00b0e6" stroke="#00b0e6" stroke-width="1"></polygon></g></g><g><g cursor="cell"><line x1="208" y1="657" x2="80" y2="731" stroke="red" stroke-width="8" opacity="0"></line><line x1="208" y1="657" x2="80" y2="731" stroke="#000000" stroke-width="2" stroke-linecap="round"></line></g></g><g><g cursor="cell"><line x1="-368" y1="749" x2="-616" y2="606" stroke="red" stroke-width="8" opacity="0"></line><line x1="-368" y1="749" x2="-616" y2="606" stroke="#000000" stroke-width="2" stroke-linecap="round"></line><polygon points="-626 600, -616 615, -613 608, -600 606, -626 600" stroke-linejoin="round" fill="#000000" stroke="#000000" stroke-width="1"></polygon></g></g><g><g cursor="cell"><line x1="-512" y1="130" x2="-361" y2="234" stroke="red" stroke-width="8" opacity="0"></line><line x1="-512" y1="130" x2="-361" y2="234" stroke="#00b0e6" stroke-width="2" stroke-dasharray="8,6" stroke-linecap="butt"></line><polygon points="-352 241, -359 225, -363 233, -377 234, -352 241" stroke-linejoin="round" fill="#00b0e6" stroke="#00b0e6" stroke-width="1"></polygon></g></g><g><g cursor="cell"><line x1="512" y1="481" x2="336" y2="583" stroke="red" stroke-width="8" opacity="0"></line><line x1="512" y1="481" x2="336" y2="583" stroke="#000000" stroke-width="2" stroke-linecap="round"></line></g></g><g><g cursor="cell"><line x1="336" y1="583" x2="282" y2="551" stroke="red" stroke-width="8" opacity="0"></line><line x1="336" y1="583" x2="282" y2="551" stroke="#000000" stroke-width="2" stroke-linecap="round"></line><polygon points="272 546, 281 561, 284 553, 298 551, 272 546" stroke-linejoin="round" fill="#000000" stroke="#000000" stroke-width="1"></polygon></g></g><g><g cursor="cell"><line x1="336" y1="583" x2="208" y2="657" stroke="red" stroke-width="8" opacity="0"></line><line x1="336" y1="583" x2="208" y2="657" stroke="#000000" stroke-width="2" stroke-linecap="round"></line></g></g><g><g cursor="cell"><line x1="-256" y1="296" x2="-96" y2="315" stroke="red" stroke-width="8" opacity="0"></line><line x1="-256" y1="296" x2="-96" y2="315" stroke="#000000" stroke-width="2" stroke-linecap="round"></line></g></g><g><g cursor="cell"><line x1="432" y1="398" x2="451" y2="408" stroke="red" stroke-width="8" opacity="0"></line><line x1="432" y1="398" x2="451" y2="408" stroke="#000000" stroke-width="2" stroke-linecap="round"></line></g></g><g><g cursor="cell"><line x1="48" y1="564" x2="0" y2="537" stroke="red" stroke-width="8" opacity="0"></line><line x1="48" y1="564" x2="0" y2="537" stroke="#000000" stroke-width="2" stroke-linecap="round"></line></g></g><g><g cursor="cell"><line x1="-394" y1="487" x2="-448" y2="518" stroke="red" stroke-width="8" opacity="0"></line><line x1="-394" y1="487" x2="-448" y2="518" stroke="#000000" stroke-width="2" stroke-linecap="round"></line><polygon points="-384 481, -410 486, -396 488, -393 496, -384 481" stroke-linejoin="round" fill="#000000" stroke="#000000" stroke-width="1"></polygon></g></g><g><g cursor="cell"><line x1="-640" y1="481" x2="-576" y2="444" stroke="red" stroke-width="8" opacity="0"></line><line x1="-640" y1="481" x2="-576" y2="444" stroke="#000000" stroke-width="2" stroke-linecap="round"></line></g></g><g><g cursor="cell"><line x1="-512" y1="555" x2="-448" y2="518" stroke="red" stroke-width="8" opacity="0"></line><line x1="-512" y1="555" x2="-448" y2="518" stroke="#000000" stroke-width="2" stroke-linecap="round"></line></g></g><g><g cursor="cell"><line x1="-672" y1="574" x2="-608" y2="537" stroke="red" stroke-width="8" opacity="0"></line><line x1="-672" y1="574" x2="-608" y2="537" stroke="#000000" stroke-width="2" stroke-linecap="round"></line></g></g><g><g cursor="cell"><line x1="-58" y1="208" x2="-328" y2="69" stroke="red" stroke-width="8" opacity="0"></line><line x1="-58" y1="208" x2="-328" y2="69" stroke="#00b0e6" stroke-width="2" stroke-dasharray="8,6" stroke-linecap="butt"></line><polygon points="-48 213, -59 198, -61 206, -74 208, -48 213" stroke-linejoin="round" fill="#00b0e6" stroke="#00b0e6" stroke-width="1"></polygon><polygon points="-338 63, -328 78, -325 70, -312 68, -338 63" stroke-linejoin="round" fill="#00b0e6" stroke="#00b0e6" stroke-width="1"></polygon></g></g><g><g cursor="cell"><line x1="-608" y1="537" x2="-640" y2="481" stroke="red" stroke-width="8" opacity="0"></line><line x1="-608" y1="537" x2="-640" y2="481" stroke="#000000" stroke-width="2" stroke-linecap="round"></line></g></g><g><g cursor="cell"><line x1="-549" y1="344" x2="-640" y2="204" stroke="red" stroke-width="8" opacity="0"></line><line x1="-549" y1="344" x2="-640" y2="204" stroke="#00b0e6" stroke-width="2" stroke-dasharray="8,6" stroke-linecap="butt"></line><polygon points="-544 352, -542 336, -550 342, -563 341, -544 352" stroke-linejoin="round" fill="#00b0e6" stroke="#00b0e6" stroke-width="1"></polygon></g></g><g><g cursor="cell"><line x1="-288" y1="426" x2="-26" y2="274" stroke="red" stroke-width="8" opacity="0"></line><line x1="-288" y1="426" x2="-26" y2="274" stroke="#000000" stroke-width="2" stroke-linecap="round"></line><polygon points="-16 268, -42 274, -28 275, -25 283, -16 268" stroke-linejoin="round" fill="#000000" stroke="#000000" stroke-width="1"></polygon></g></g><g><g cursor="cell"><line x1="-48" y1="805" x2="-102" y2="773" stroke="red" stroke-width="8" opacity="0"></line><line x1="-48" y1="805" x2="-102" y2="773" stroke="#000000" stroke-width="2" stroke-linecap="round"></line><polygon points="-112 768, -103 783, -100 775, -86 773, -112 768" stroke-linejoin="round" fill="#000000" stroke="#000000" stroke-width="1"></polygon></g></g><g><g cursor="cell"><line x1="80" y1="731" x2="-48" y2="805" stroke="red" stroke-width="8" opacity="0"></line><line x1="80" y1="731" x2="-48" y2="805" stroke="#000000" stroke-width="2" stroke-linecap="round"></line></g></g></g><g pointer-events="auto"><g opacity="1"><g id="ab8dcc86-5419-4583-adff-a82a8bda3acf" transform="translate(0 0)"><svg x="336" y="305" height="111" width="128" fill-rule="evenodd"><path d="M64 74v37l64-37V37L64 74z" fill="#b8b8bb"></path><path d="M0 37v37l64 37V74L0 37z" fill="#d2d2d4"></path><path d="M0 37L64 0l64 37-64 37L0 37z" fill="#ececed"></path><path d="M64 73.407l62.111-35.86.514.889-62.487 36.078h-.276L.743 38.072l.514-.89L64 73.407z" fill="#83838a"></path><path d="M63.486 74h1.027v36h-1.027z" fill="#83838a"></path><path d="M128 37v37l-64 37L0 74V37L64 0l64 37zM2.054 38.185v34.63L64 108.627l61.946-35.812v-34.63L64 2.373 2.054 38.185z" fill="#000000"></path></svg></g></g><g opacity="1"><g id="9abbe936-2b37-4ec4-aeb8-e4b6596e1060" transform="translate(0 0)"><svg x="480" y="389" height="111" width="128" fill-rule="evenodd"><path d="M64 74v37l64-37V37L64 74z" fill="#b8b8bb"></path><path d="M0 37v37l64 37V74L0 37z" fill="#d2d2d4"></path><path d="M0 37L64 0l64 37-64 37L0 37z" fill="#ececed"></path><path d="M64 73.407l62.111-35.86.514.889-62.487 36.078h-.276L.743 38.072l.514-.89L64 73.407z" fill="#83838a"></path><path d="M63.486 74h1.027v36h-1.027z" fill="#83838a"></path><path d="M128 37v37l-64 37L0 74V37L64 0l64 37zM2.054 38.185v34.63L64 108.627l61.946-35.812v-34.63L64 2.373 2.054 38.185z" fill="#000000"></path></svg></g></g><g opacity="1"><g id="951ddc67-bf4b-41dc-8611-b03c53c81195" transform="translate(0 0)"><g><polygon points="16 176, 80 213, 16 250, -48 213" fill="#ececed"></polygon><polygon points="-48 250, 16 287, 16 250, -48 213" fill="#d2d2d4" stroke="#83838a"></polygon><polygon points="16 287, 80 250, 80 213, 16 250" fill="#b8b8bb" stroke="#83838a"></polygon><polygon points="16 176, -48 213, -48 250, 16 287, 80 250, 80 213" fill="none" stroke="#000000" stroke-width="2"></polygon></g></g></g><g opacity="1"><g id="9bd71f6b-7ff5-4e50-9d92-ddbbf21db513" transform="translate(0 0)"><svg x="176" y="453" height="111" width="128" fill-rule="evenodd"><path d="M64 74v37l64-37V37L64 74z" fill="#b8b8bb"></path><path d="M0 37v37l64 37V74L0 37z" fill="#d2d2d4"></path><path d="M0 37L64 0l64 37-64 37L0 37z" fill="#ececed"></path><path d="M64 73.407l62.111-35.86.514.889-62.487 36.078h-.276L.743 38.072l.514-.89L64 73.407z" fill="#83838a"></path><path d="M63.486 74h1.027v36h-1.027z" fill="#83838a"></path><path d="M128 37v37l-64 37L0 74V37L64 0l64 37zM2.054 38.185v34.63L64 108.627l61.946-35.812v-34.63L64 2.373 2.054 38.185z" fill="#000000"></path></svg></g></g><g opacity="1"><g id="c1cc1e78-fc3e-4038-b527-8d6c18a6c8d7" transform="translate(0 0)"><svg x="-352" y="204" height="111" width="128" fill-rule="evenodd"><path d="M64 74v37l64-37V37L64 74z" fill="#b8b8bb"></path><path d="M0 37v37l64 37V74L0 37z" fill="#d2d2d4"></path><path d="M0 37L64 0l64 37-64 37L0 37z" fill="#ececed"></path><path d="M64 73.407l62.111-35.86.514.889-62.487 36.078h-.276L.743 38.072l.514-.89L64 73.407z" fill="#83838a"></path><path d="M63.486 74h1.027v36h-1.027z" fill="#83838a"></path><path d="M128 37v37l-64 37L0 74V37L64 0l64 37zM2.054 38.185v34.63L64 108.627l61.946-35.812v-34.63L64 2.373 2.054 38.185z" fill="#000000"></path></svg></g></g><g opacity="1"><g id="9141b981-28c4-4d80-ad45-1ac1d07118dc" transform="translate(0 0)"><svg x="48" y="527" height="111" width="128" fill-rule="evenodd"><path d="M64 74v37l64-37V37L64 74z" fill="#b8b8bb"></path><path d="M0 37v37l64 37V74L0 37z" fill="#d2d2d4"></path><path d="M0 37L64 0l64 37-64 37L0 37z" fill="#ececed"></path><path d="M64 73.407l62.111-35.86.514.889-62.487 36.078h-.276L.743 38.072l.514-.89L64 73.407z" fill="#83838a"></path><path d="M63.486 74h1.027v36h-1.027z" fill="#83838a"></path><path d="M128 37v37l-64 37L0 74V37L64 0l64 37zM2.054 38.185v34.63L64 108.627l61.946-35.812v-34.63L64 2.373 2.054 38.185z" fill="#000000"></path></svg></g></g><g opacity="1"><g id="edfc39ec-e013-4e37-accf-7a1d106b836b" transform="translate(0 0)"><svg x="-544" y="315" height="111" width="128" fill-rule="evenodd"><path d="M64 74v37l64-37V37L64 74z" fill="#b8b8bb"></path><path d="M0 37v37l64 37V74L0 37z" fill="#d2d2d4"></path><path d="M0 37L64 0l64 37-64 37L0 37z" fill="#ececed"></path><path d="M64 73.407l62.111-35.86.514.889-62.487 36.078h-.276L.743 38.072l.514-.89L64 73.407z" fill="#83838a"></path><path d="M63.486 74h1.027v36h-1.027z" fill="#83838a"></path><path d="M128 37v37l-64 37L0 74V37L64 0l64 37zM2.054 38.185v34.63L64 108.627l61.946-35.812v-34.63L64 2.373 2.054 38.185z" fill="#000000"></path></svg></g></g><g opacity="1"><g id="7fe95440-8c91-41a1-a4b3-f92986008e32" transform="translate(0 0)"><svg x="-416" y="389" height="111" width="128" fill-rule="evenodd"><path d="M64 74v37l64-37V37L64 74z" fill="#b8b8bb"></path><path d="M0 37v37l64 37V74L0 37z" fill="#d2d2d4"></path><path d="M0 37L64 0l64 37-64 37L0 37z" fill="#ececed"></path><path d="M64 73.407l62.111-35.86.514.889-62.487 36.078h-.276L.743 38.072l.514-.89L64 73.407z" fill="#83838a"></path><path d="M63.486 74h1.027v36h-1.027z" fill="#83838a"></path><path d="M128 37v37l-64 37L0 74V37L64 0l64 37zM2.054 38.185v34.63L64 108.627l61.946-35.812v-34.63L64 2.373 2.054 38.185z" fill="#000000"></path></svg></g></g><g opacity="1"><g id="f62ad80c-caa5-467a-810b-b613922390c9" transform="translate(0 0)"><svg x="-80" y="601" height="111" width="128" fill-rule="evenodd"><path d="M64 74v37l64-37V37L64 74z" fill="#b8b8bb"></path><path d="M0 37v37l64 37V74L0 37z" fill="#d2d2d4"></path><path d="M0 37L64 0l64 37-64 37L0 37z" fill="#ececed"></path><path d="M64 73.407l62.111-35.86.514.889-62.487 36.078h-.276L.743 38.072l.514-.89L64 73.407z" fill="#83838a"></path><path d="M63.486 74h1.027v36h-1.027z" fill="#83838a"></path><path d="M128 37v37l-64 37L0 74V37L64 0l64 37zM2.054 38.185v34.63L64 108.627l61.946-35.812v-34.63L64 2.373 2.054 38.185z" fill="#000000"></path></svg></g></g><g opacity="1"><g id="55603851-2dda-4c08-9eeb-85285e65c5a0" transform="translate(0 0)"><svg x="-208" y="675" height="111" width="128" fill-rule="evenodd"><path d="M64 74v37l64-37V37L64 74z" fill="#b8b8bb"></path><path d="M0 37v37l64 37V74L0 37z" fill="#d2d2d4"></path><path d="M0 37L64 0l64 37-64 37L0 37z" fill="#ececed"></path><path d="M64 73.407l62.111-35.86.514.889-62.487 36.078h-.276L.743 38.072l.514-.89L64 73.407z" fill="#83838a"></path><path d="M63.486 74h1.027v36h-1.027z" fill="#83838a"></path><path d="M128 37v37l-64 37L0 74V37L64 0l64 37zM2.054 38.185v34.63L64 108.627l61.946-35.812v-34.63L64 2.373 2.054 38.185z" fill="#000000"></path></svg></g></g></g><g pointer-events="auto"></g><g pointer-events="auto"><g opacity="1"><g id="1e303a60-4b3a-47ab-9630-c2ef55717f98" transform="translate(0 0)"><svg x="-672" y="574" overflow="visible"><g transform="scale(2.729575167846423) matrix(0.707 0.409 -0.707 0.409 0 0)"><circle cx="0" cy="0" fill="#050505" r="24"></circle><svg width="34" height="32" x="-17" y="-16" style="fill: rgb(255, 255, 255);"><svg xmlns="http://www.w3.org/2000/svg" width="34" height="32" viewBox="0 0 34 32"><path d="M34.286 20.571a6.858 6.858 0 0 1-6.857 6.857H8c-4.411 0-8-3.589-8-8a7.993 7.993 0 0 1 4.607-7.232c-.018-.25-.036-.518-.036-.768a9.137 9.137 0 0 1 9.143-9.143c3.821 0 7.089 2.339 8.464 5.679a4.439 4.439 0 0 1 2.964-1.107 4.58 4.58 0 0 1 4.571 4.571 4.49 4.49 0 0 1-.732 2.464c3.036.714 5.304 3.429 5.304 6.679z"></path></svg></svg></g></svg></g></g><g opacity="1"><g id="55396711-29d4-4bce-ac80-dbe119d8e32f" transform="translate(0 0)"><svg x="112" y="564" overflow="visible"><g transform="scale(0.8944271909999159) matrix(0.707 0.409 -0.707 0.409 0 0)"><circle cx="0" cy="0" fill="#050505" r="24"></circle><svg width="34" height="32" x="-17" y="-16" style="fill: rgb(255, 255, 255);"><svg xmlns="http://www.w3.org/2000/svg" width="34" height="32" viewBox="0 0 34 32"><path d="M15.946 0A15.89 15.89 0 0 1 24 2.143a16.031 16.031 0 0 1 6.286 6.643l-13.25-.696c-3.75-.214-7.321 1.893-8.554 5.429L3.553 5.948C6.624 2.127 11.232.019 15.946.002zM2.607 7.232l6.018 11.839c1.696 3.339 5.286 5.375 9 4.679l-4.107 8.054C5.857 30.625 0 24 0 16c0-3.232.964-6.25 2.607-8.768zm28.322 3.018c2.804 7.214 0 15.607-6.929 19.607a15.962 15.962 0 0 1-8.893 2.125l7.232-11.125c2.054-3.161 2.018-7.286-.429-10.143zM16 10.607c2.982 0 5.393 2.411 5.393 5.393S18.982 21.393 16 21.393 10.607 18.982 10.607 16s2.411-5.393 5.393-5.393z"></path></svg></svg></g></svg></g></g><g opacity="1"><g id="d5b0de27-86fd-496c-a692-78a2bc2e63f3" transform="translate(0 0)"><svg x="240" y="490" overflow="visible"><g transform="scale(0.8944271909999159) matrix(0.707 0.409 -0.707 0.409 0 0)"><circle cx="0" cy="0" fill="#050505" r="24"></circle><svg width="34" height="32" x="-17" y="-16" style="fill: rgb(255, 255, 255);"><svg xmlns="http://www.w3.org/2000/svg" width="34" height="32" viewBox="0 0 34 32"><path d="M15.946 0A15.89 15.89 0 0 1 24 2.143a16.031 16.031 0 0 1 6.286 6.643l-13.25-.696c-3.75-.214-7.321 1.893-8.554 5.429L3.553 5.948C6.624 2.127 11.232.019 15.946.002zM2.607 7.232l6.018 11.839c1.696 3.339 5.286 5.375 9 4.679l-4.107 8.054C5.857 30.625 0 24 0 16c0-3.232.964-6.25 2.607-8.768zm28.322 3.018c2.804 7.214 0 15.607-6.929 19.607a15.962 15.962 0 0 1-8.893 2.125l7.232-11.125c2.054-3.161 2.018-7.286-.429-10.143zM16 10.607c2.982 0 5.393 2.411 5.393 5.393S18.982 21.393 16 21.393 10.607 18.982 10.607 16s2.411-5.393 5.393-5.393z"></path></svg></svg></g></svg></g></g><g opacity="1"><g id="821cda2f-27fc-4987-8dc1-1ca52c6eef2c" transform="translate(0 0)"><svg x="-16" y="638" overflow="visible"><g transform="scale(0.8944271909999159) matrix(0.707 0.409 -0.707 0.409 0 0)"><circle cx="0" cy="0" fill="#050505" r="23"></circle><svg width="31" height="32" x="-15.5" y="-16" style="fill: rgb(255, 255, 255);"><svg xmlns="http://www.w3.org/2000/svg" width="31" height="32" viewBox="0 0 31 32"><path d="M16.125 32C9.232 32 3.75 27.964 1.232 22.196-1.589 15.785.661 5.517 5.678.982L5.482 6c.25-.321 2.161-.411 2.464 0C8.982 4.018 12.321 2.536 15 2.482c-1.018.857-3.375 3.982-3.179 5.571 1.304.411 3.304.429 4.357.5.321.179.268 1.268-.375 2.161 0 0-.839 1.161-3.107 1.571l.268 3.375-2.482-1.196c-.804 2.036 1.125 3.839 3.125 3.5 2.214-.375 3-1.821 4.554-1.732 1.536.089 2.143.946 1.946 1.75 0 0-.25.964-1.911.804-1.411 2.232-3.286 3.214-6.321 2.946 4.607 3.821 10.821.357 12.393-2.768 1.571-3.107.196-7.732-1.375-9.036 1.857.804 3.143 1.625 3.821 3.429.357-4-1.482-8.536-4.768-11.196C28.125 3.965 31.892 8.75 32 16.393S25.232 32 16.125 32z"></path></svg></svg></g></svg></g></g><g opacity="1"><g id="3fe2e0aa-22eb-42f6-a64e-34895aafbacd" transform="translate(0 0)"><svg x="-144" y="712" overflow="visible"><g transform="scale(0.8944271909999159) matrix(0.707 0.409 -0.707 0.409 0 0)"><circle cx="0" cy="0" fill="#050505" r="23"></circle><svg width="31" height="32" x="-15.5" y="-16" style="fill: rgb(255, 255, 255);"><svg xmlns="http://www.w3.org/2000/svg" width="31" height="32" viewBox="0 0 31 32"><path d="M16.125 32C9.232 32 3.75 27.964 1.232 22.196-1.589 15.785.661 5.517 5.678.982L5.482 6c.25-.321 2.161-.411 2.464 0C8.982 4.018 12.321 2.536 15 2.482c-1.018.857-3.375 3.982-3.179 5.571 1.304.411 3.304.429 4.357.5.321.179.268 1.268-.375 2.161 0 0-.839 1.161-3.107 1.571l.268 3.375-2.482-1.196c-.804 2.036 1.125 3.839 3.125 3.5 2.214-.375 3-1.821 4.554-1.732 1.536.089 2.143.946 1.946 1.75 0 0-.25.964-1.911.804-1.411 2.232-3.286 3.214-6.321 2.946 4.607 3.821 10.821.357 12.393-2.768 1.571-3.107.196-7.732-1.375-9.036 1.857.804 3.143 1.625 3.821 3.429.357-4-1.482-8.536-4.768-11.196C28.125 3.965 31.892 8.75 32 16.393S25.232 32 16.125 32z"></path></svg></svg></g></svg></g></g><g opacity="1"><g id="1f1f36f4-f218-4664-9619-e0b123db29d5" transform="translate(0 0)"><svg x="16" y="213" overflow="visible"><g transform="scale(0.8944271909999159) matrix(0.707 0.409 -0.707 0.409 0 0)"><circle cx="0" cy="0" fill="#050505" r="23"></circle><svg width="27" height="32" x="-13.5" y="-16" style="fill: rgb(255, 255, 255);"><svg xmlns="http://www.w3.org/2000/svg" width="27" height="32" viewBox="0 0 27 32"><path d="M13.714 13.714c5.375 0 10.768-.964 13.714-3.036v3.036c0 2.518-6.143 4.571-13.714 4.571S0 16.231 0 13.714v-3.036c2.946 2.071 8.339 3.036 13.714 3.036zm0 13.715c5.375 0 10.768-.964 13.714-3.036v3.036c0 2.518-6.143 4.571-13.714 4.571S0 29.946 0 27.429v-3.036c2.946 2.071 8.339 3.036 13.714 3.036zm0-6.858c5.375 0 10.768-.964 13.714-3.036v3.036c0 2.518-6.143 4.571-13.714 4.571S0 23.088 0 20.571v-3.036c2.946 2.071 8.339 3.036 13.714 3.036zm0-20.571c7.571 0 13.714 2.054 13.714 4.571v2.286c0 2.518-6.143 4.571-13.714 4.571S0 9.374 0 6.857V4.571C0 2.053 6.143 0 13.714 0z"></path></svg></svg></g></svg></g></g><g opacity="1"><g id="e88cd5a9-d63d-4d02-a33d-f7fcbdf4e9df" transform="translate(0 0)"><svg x="-640" y="204" overflow="visible"><g transform="scale(1.7469281074217107) matrix(0.707 0.409 -0.707 0.409 0 0)"><circle cx="0" cy="0" fill="#050505" r="24"></circle><svg width="34" height="32" x="-17" y="-16" style="fill: rgb(255, 255, 255);"><svg xmlns="http://www.w3.org/2000/svg" width="34" height="32" viewBox="0 0 34 32"><path d="M31.804 16.625c0-.5-.554-.625-.946-.625H11.429c-.946 0-2.196.589-2.804 1.321l-5.25 6.482c-.161.214-.321.446-.321.714 0 .5.554.625.946.625h19.429c.946 0 2.196-.589 2.804-1.339l5.25-6.482c.161-.196.321-.429.321-.696zm-20.375-2.911h13.714v-2.857c0-.946-.768-1.714-1.714-1.714H13.143a1.715 1.715 0 0 1-1.714-1.714V6.286c0-.946-.768-1.714-1.714-1.714H4.001c-.946 0-1.714.768-1.714 1.714v15.232l4.571-5.625c1.036-1.268 2.946-2.179 4.571-2.179zm22.66 2.911c0 .786-.339 1.536-.821 2.143L28 25.25c-1.018 1.25-2.964 2.179-4.571 2.179H4c-2.196 0-4-1.804-4-4V6.286c0-2.196 1.804-4 4-4h5.714c2.196 0 4 1.804 4 4v.571h9.714c2.196 0 4 1.804 4 4v2.857h3.429c1.214 0 2.429.554 2.964 1.696.179.375.268.786.268 1.214z"></path></svg></svg></g></svg></g></g><g opacity="1"><g id="412c4305-3005-4ee7-8b7d-b00a9a97d199" transform="translate(0 0)"><svg x="-368" y="46" overflow="visible"><g transform="scale(1.7469281074217107) matrix(0.707 0.409 -0.707 0.409 0 0)"><circle cx="0" cy="0" fill="#050505" r="24"></circle><svg width="34" height="32" x="-17" y="-16" style="fill: rgb(255, 255, 255);"><svg xmlns="http://www.w3.org/2000/svg" width="34" height="32" viewBox="0 0 34 32"><path d="M31.804 16.625c0-.5-.554-.625-.946-.625H11.429c-.946 0-2.196.589-2.804 1.321l-5.25 6.482c-.161.214-.321.446-.321.714 0 .5.554.625.946.625h19.429c.946 0 2.196-.589 2.804-1.339l5.25-6.482c.161-.196.321-.429.321-.696zm-20.375-2.911h13.714v-2.857c0-.946-.768-1.714-1.714-1.714H13.143a1.715 1.715 0 0 1-1.714-1.714V6.286c0-.946-.768-1.714-1.714-1.714H4.001c-.946 0-1.714.768-1.714 1.714v15.232l4.571-5.625c1.036-1.268 2.946-2.179 4.571-2.179zm22.66 2.911c0 .786-.339 1.536-.821 2.143L28 25.25c-1.018 1.25-2.964 2.179-4.571 2.179H4c-2.196 0-4-1.804-4-4V6.286c0-2.196 1.804-4 4-4h5.714c2.196 0 4 1.804 4 4v.571h9.714c2.196 0 4 1.804 4 4v2.857h3.429c1.214 0 2.429.554 2.964 1.696.179.375.268.786.268 1.214z"></path></svg></svg></g></svg></g></g><g opacity="1"><g id="5d73fbce-6de7-4a06-9be6-7ec3eef6e721" transform="translate(0 0)"><svg x="-288" y="0" overflow="visible"><g transform="scale(1.7469281074217107) matrix(0.707 0.409 -0.707 0.409 0 0)"><circle cx="0" cy="0" fill="#050505" r="24"></circle><svg width="34" height="32" x="-17" y="-16" style="fill: rgb(255, 255, 255);"><svg xmlns="http://www.w3.org/2000/svg" width="34" height="32" viewBox="0 0 34 32"><path d="M31.804 16.625c0-.5-.554-.625-.946-.625H11.429c-.946 0-2.196.589-2.804 1.321l-5.25 6.482c-.161.214-.321.446-.321.714 0 .5.554.625.946.625h19.429c.946 0 2.196-.589 2.804-1.339l5.25-6.482c.161-.196.321-.429.321-.696zm-20.375-2.911h13.714v-2.857c0-.946-.768-1.714-1.714-1.714H13.143a1.715 1.715 0 0 1-1.714-1.714V6.286c0-.946-.768-1.714-1.714-1.714H4.001c-.946 0-1.714.768-1.714 1.714v15.232l4.571-5.625c1.036-1.268 2.946-2.179 4.571-2.179zm22.66 2.911c0 .786-.339 1.536-.821 2.143L28 25.25c-1.018 1.25-2.964 2.179-4.571 2.179H4c-2.196 0-4-1.804-4-4V6.286c0-2.196 1.804-4 4-4h5.714c2.196 0 4 1.804 4 4v.571h9.714c2.196 0 4 1.804 4 4v2.857h3.429c1.214 0 2.429.554 2.964 1.696.179.375.268.786.268 1.214z"></path></svg></svg></g></svg></g></g><g opacity="1"><g id="820bd81c-fc73-420e-a869-fff554d5a4d3" transform="translate(0 0)"><svg x="-512" y="130" overflow="visible"><g transform="scale(1.7469281074217107) matrix(0.707 0.409 -0.707 0.409 0 0)"><circle cx="0" cy="0" fill="#050505" r="23"></circle><svg width="27" height="32" x="-13.5" y="-16" style="fill: rgb(255, 255, 255);"><svg xmlns="http://www.w3.org/2000/svg" width="27" height="32" viewBox="0 0 27 32"><path d="M26.214 6.786c.661.661 1.214 1.982 1.214 2.929v20.571c0 .946-.768 1.714-1.714 1.714h-24A1.715 1.715 0 0 1 0 30.286V1.715C0 .769.768.001 1.714.001h16c.946 0 2.268.554 2.929 1.214zm-7.928-4.357v6.714H25c-.107-.304-.268-.607-.393-.732l-5.589-5.589c-.125-.125-.429-.286-.732-.393zm6.857 27.285V11.428h-7.429A1.715 1.715 0 0 1 16 9.714V2.285H2.286v27.429h22.857z"></path></svg></svg></g></svg></g></g><g opacity="1"><g id="f914d86a-e482-442a-9ed0-681835d6bcb2" transform="translate(0 0)"><svg x="-720" y="250" overflow="visible"><g transform="scale(1.7469281074217107) matrix(0.707 0.409 -0.707 0.409 0 0)"><circle cx="0" cy="0" fill="#050505" r="23"></circle><svg width="27" height="32" x="-13.5" y="-16" style="fill: rgb(255, 255, 255);"><svg xmlns="http://www.w3.org/2000/svg" width="27" height="32" viewBox="0 0 27 32"><path d="M26.214 6.786c.661.661 1.214 1.982 1.214 2.929v20.571c0 .946-.768 1.714-1.714 1.714h-24A1.715 1.715 0 0 1 0 30.286V1.715C0 .769.768.001 1.714.001h16c.946 0 2.268.554 2.929 1.214zm-7.928-4.357v6.714H25c-.107-.304-.268-.607-.393-.732l-5.589-5.589c-.125-.125-.429-.286-.732-.393zm6.857 27.285V11.428h-7.429A1.715 1.715 0 0 1 16 9.714V2.285H2.286v27.429h22.857z"></path></svg></svg></g></svg></g></g></g><g pointer-events="auto"><g opacity="1"><g id="b6e5f1a3-ab31-42a4-a6c5-dbe4304ec79a"><svg x="-592" y="342" overflow="visible"><text stroke="#ffffff" stroke-width="4" font-family="Open Sans" y="36.5" font-size="25pt" fill="#da10ab" font-weight="bold" transform="matrix(0.707 0.409 -0.707 0.409 0 0)" xml:space="preserve"><tspan x="8" dy="0">nginx</tspan></text><text font-family="Open Sans" y="36.5" font-size="25pt" fill="#da10ab" font-weight="bold" transform="matrix(0.707 0.409 -0.707 0.409 0 0)" xml:space="preserve"><tspan x="8" dy="0">nginx</tspan></text></svg></g></g><g opacity="1"><g id="4faff64c-335f-4a74-8657-7e2c429da65e"><svg x="-368" y="250" overflow="visible"><text stroke="#ffffff" stroke-width="4" font-family="Open Sans" y="36.5" font-size="25pt" fill="#da10ab" font-weight="bold" transform="matrix(0.707 0.409 -0.707 0.409 0 0)" xml:space="preserve"><tspan x="8" dy="0">php</tspan></text><text font-family="Open Sans" y="36.5" font-size="25pt" fill="#da10ab" font-weight="bold" transform="matrix(0.707 0.409 -0.707 0.409 0 0)" xml:space="preserve"><tspan x="8" dy="0">php</tspan></text></svg></g></g><g opacity="1"><g id="fa9e8fdc-b07a-492c-a339-20415b195ac9"><svg x="-448" y="426" overflow="visible"><text stroke="#ffffff" stroke-width="4" font-family="Open Sans" y="36.5" font-size="25pt" fill="#da10ab" font-weight="bold" transform="matrix(0.707 0.409 -0.707 0.409 0 0)" xml:space="preserve"><tspan x="8" dy="0">mongo-express</tspan></text><text font-family="Open Sans" y="36.5" font-size="25pt" fill="#da10ab" font-weight="bold" transform="matrix(0.707 0.409 -0.707 0.409 0 0)" xml:space="preserve"><tspan x="8" dy="0">mongo-express</tspan></text></svg></g></g><g opacity="1"><g id="09cc2971-f752-4146-ab8c-24fe5487852f"><svg x="-480" y="555" overflow="visible"><text stroke="#ffffff" stroke-width="4" font-family="Open Sans" y="36.5" font-size="25pt" fill="#00b0e6" font-weight="bold" transform="matrix(0.707 0.409 -0.707 0.409 0 0)" xml:space="preserve"><tspan x="8" dy="0">8080</tspan></text><text font-family="Open Sans" y="36.5" font-size="25pt" fill="#00b0e6" font-weight="bold" transform="matrix(0.707 0.409 -0.707 0.409 0 0)" xml:space="preserve"><tspan x="8" dy="0">8080</tspan></text></svg></g></g><g opacity="1"><g id="0f74f49c-7325-443b-a561-6c25e3079317"><svg x="-416" y="518" overflow="visible"><text stroke="#ffffff" stroke-width="4" font-family="Open Sans" y="36.5" font-size="25pt" fill="#00b0e6" font-weight="bold" transform="matrix(0.707 0.409 -0.707 0.409 0 0)" xml:space="preserve"><tspan x="8" dy="0">8081</tspan></text><text font-family="Open Sans" y="36.5" font-size="25pt" fill="#00b0e6" font-weight="bold" transform="matrix(0.707 0.409 -0.707 0.409 0 0)" xml:space="preserve"><tspan x="8" dy="0">8081</tspan></text></svg></g></g><g opacity="1"><g id="64a14954-2274-4f28-a5b8-61e43b54ba47"><svg x="-608" y="407" overflow="visible"><text stroke="#ffffff" stroke-width="4" font-family="Open Sans" y="36.5" font-size="25pt" fill="#00b0e6" font-weight="bold" transform="matrix(0.707 0.409 -0.707 0.409 0 0)" xml:space="preserve"><tspan x="8" dy="0">80</tspan></text><text font-family="Open Sans" y="36.5" font-size="25pt" fill="#00b0e6" font-weight="bold" transform="matrix(0.707 0.409 -0.707 0.409 0 0)" xml:space="preserve"><tspan x="8" dy="0">80</tspan></text></svg></g></g><g opacity="1"><g id="dcc66036-4ba9-4bd7-8bfd-e712b2ec7f23"><svg x="-672" y="444" overflow="visible"><text stroke="#ffffff" stroke-width="4" font-family="Open Sans" y="36.5" font-size="25pt" fill="#00b0e6" font-weight="bold" transform="matrix(0.707 0.409 -0.707 0.409 0 0)" xml:space="preserve"><tspan x="8" dy="0">80</tspan></text><text font-family="Open Sans" y="36.5" font-size="25pt" fill="#00b0e6" font-weight="bold" transform="matrix(0.707 0.409 -0.707 0.409 0 0)" xml:space="preserve"><tspan x="8" dy="0">80</tspan></text></svg></g></g><g opacity="1"><g id="a247c2b9-f4f0-4c71-bbe2-78f3f024df05"><svg x="-336" y="305" overflow="visible"><text stroke="#ffffff" stroke-width="4" font-family="Open Sans" y="36.5" font-size="25pt" fill="#00b0e6" font-weight="bold" transform="matrix(0.707 0.409 -0.707 0.409 0 0)" xml:space="preserve"><tspan x="8" dy="0">9000</tspan></text><text font-family="Open Sans" y="36.5" font-size="25pt" fill="#00b0e6" font-weight="bold" transform="matrix(0.707 0.409 -0.707 0.409 0 0)" xml:space="preserve"><tspan x="8" dy="0">9000</tspan></text></svg></g></g><g opacity="1"><g id="3eb257b5-31b4-4b3d-b33d-79c2093de7bb"><svg x="-64" y="296" overflow="visible"><text stroke="#ffffff" stroke-width="4" font-family="Open Sans" y="36.5" font-size="25pt" fill="#00b0e6" font-weight="bold" transform="matrix(0.707 0.409 -0.707 0.409 0 0)" xml:space="preserve"><tspan x="8" dy="0">27017</tspan></text><text font-family="Open Sans" y="36.5" font-size="25pt" fill="#00b0e6" font-weight="bold" transform="matrix(0.707 0.409 -0.707 0.409 0 0)" xml:space="preserve"><tspan x="8" dy="0">27017</tspan></text></svg></g></g><g opacity="1"><g id="68f7af89-bddd-4d41-b5ae-0b13c3ef9d5c"><svg x="528" y="472" overflow="visible"><text stroke="#ffffff" stroke-width="4" font-family="Open Sans" y="36.5" font-size="25pt" fill="#00b0e6" font-weight="bold" transform="matrix(0.707 0.409 -0.707 0.409 0 0)" xml:space="preserve"><tspan x="8" dy="0">hub</tspan></text><text font-family="Open Sans" y="36.5" font-size="25pt" fill="#00b0e6" font-weight="bold" transform="matrix(0.707 0.409 -0.707 0.409 0 0)" xml:space="preserve"><tspan x="8" dy="0">hub</tspan></text></svg></g></g><g opacity="1"><g id="88f16df1-5a60-4481-901a-1b11ead9821f"><svg x="-176" y="749" overflow="visible"><text stroke="#ffffff" stroke-width="4" font-family="Open Sans" y="36.5" font-size="25pt" fill="#00b0e6" font-weight="bold" transform="matrix(0.707 0.409 -0.707 0.409 0 0)" xml:space="preserve"><tspan x="8" dy="0">firefox81</tspan></text><text font-family="Open Sans" y="36.5" font-size="25pt" fill="#00b0e6" font-weight="bold" transform="matrix(0.707 0.409 -0.707 0.409 0 0)" xml:space="preserve"><tspan x="8" dy="0">firefox81</tspan></text></svg></g></g><g opacity="1"><g id="1508c07f-eefe-47cb-afe7-1ddf3640bd07"><svg x="-48" y="675" overflow="visible"><text stroke="#ffffff" stroke-width="4" font-family="Open Sans" y="36.5" font-size="25pt" fill="#00b0e6" font-weight="bold" transform="matrix(0.707 0.409 -0.707 0.409 0 0)" xml:space="preserve"><tspan x="8" dy="0">firefox80</tspan></text><text font-family="Open Sans" y="36.5" font-size="25pt" fill="#00b0e6" font-weight="bold" transform="matrix(0.707 0.409 -0.707 0.409 0 0)" xml:space="preserve"><tspan x="8" dy="0">firefox80</tspan></text></svg></g></g><g opacity="1"><g id="bda74a50-d114-403c-ad7a-b3876daffcea"><svg x="80" y="601" overflow="visible"><text stroke="#ffffff" stroke-width="4" font-family="Open Sans" y="36.5" font-size="25pt" fill="#00b0e6" font-weight="bold" transform="matrix(0.707 0.409 -0.707 0.409 0 0)" xml:space="preserve"><tspan x="8" dy="0">chrome86</tspan></text><text font-family="Open Sans" y="36.5" font-size="25pt" fill="#00b0e6" font-weight="bold" transform="matrix(0.707 0.409 -0.707 0.409 0 0)" xml:space="preserve"><tspan x="8" dy="0">chrome86</tspan></text></svg></g></g><g opacity="1"><g id="c3ce3de4-304f-405e-bf20-b1433a502d30"><svg x="208" y="527" overflow="visible"><text stroke="#ffffff" stroke-width="4" font-family="Open Sans" y="36.5" font-size="25pt" fill="#00b0e6" font-weight="bold" transform="matrix(0.707 0.409 -0.707 0.409 0 0)" xml:space="preserve"><tspan x="8" dy="0">chrome85</tspan></text><text font-family="Open Sans" y="36.5" font-size="25pt" fill="#00b0e6" font-weight="bold" transform="matrix(0.707 0.409 -0.707 0.409 0 0)" xml:space="preserve"><tspan x="8" dy="0">chrome85</tspan></text></svg></g></g><g opacity="1"><g id="96c6d727-9f1a-4958-8cbb-5b7f5f067dc3"><svg x="368" y="379" overflow="visible"><text stroke="#ffffff" stroke-width="4" font-family="Open Sans" y="36.5" font-size="25pt" fill="#da10ab" font-weight="bold" transform="matrix(0.707 0.409 -0.707 0.409 0 0)" xml:space="preserve"><tspan x="8" dy="0">maven</tspan></text><text font-family="Open Sans" y="36.5" font-size="25pt" fill="#da10ab" font-weight="bold" transform="matrix(0.707 0.409 -0.707 0.409 0 0)" xml:space="preserve"><tspan x="8" dy="0">maven</tspan></text></svg></g></g><g opacity="1"><g id="0122258b-e983-4b6b-88b1-3ece148f31de"><svg x="435" y="398" overflow="visible"><text stroke="#ffffff" stroke-width="4" font-family="Open Sans" y="36.5" font-size="25pt" fill="#00b0e6" font-weight="bold" transform="matrix(0.707 -0.409 0.707 0.409 0 0)" xml:space="preserve"><tspan x="8" dy="0">4444</tspan></text><text font-family="Open Sans" y="36.5" font-size="25pt" fill="#00b0e6" font-weight="bold" transform="matrix(0.707 -0.409 0.707 0.409 0 0)" xml:space="preserve"><tspan x="8" dy="0">4444</tspan></text></svg></g></g><g opacity="1"><g id="08d854f1-af31-4c15-a287-53a9741129db"><svg x="-96" y="204" overflow="visible"><text stroke="#ffffff" stroke-width="4" font-family="Open Sans" y="36.5" font-size="25pt" fill="#da10ab" font-weight="bold" transform="matrix(0.707 0.409 -0.707 0.409 0 0)" xml:space="preserve"><tspan x="8" dy="0">mongo</tspan></text><text font-family="Open Sans" y="36.5" font-size="25pt" fill="#da10ab" font-weight="bold" transform="matrix(0.707 0.409 -0.707 0.409 0 0)" xml:space="preserve"><tspan x="8" dy="0">mongo</tspan></text></svg></g></g><g opacity="1"><g id="1439bf48-76b5-4534-8a59-86e058e439d8"><svg x="-848" y="65" overflow="visible"><text stroke="#ffffff" stroke-width="4" font-family="Open Sans" y="36.5" font-size="25pt" fill="#050505" font-weight="bold" transform="matrix(0.707 0.409 -0.707 0.409 0 0)" xml:space="preserve"><tspan x="8" dy="0">./nginx/docroot</tspan></text><text font-family="Open Sans" y="36.5" font-size="25pt" fill="#050505" font-weight="bold" transform="matrix(0.707 0.409 -0.707 0.409 0 0)" xml:space="preserve"><tspan x="8" dy="0">./nginx/docroot</tspan></text></svg></g></g><g opacity="1"><g id="a5fa54f7-49f4-4eea-99ba-911910139c27"><svg x="-624" y="-120" overflow="visible"><text stroke="#ffffff" stroke-width="4" font-family="Open Sans" y="36.5" font-size="25pt" fill="#050505" font-weight="bold" transform="matrix(0.707 0.409 -0.707 0.409 0 0)" xml:space="preserve"><tspan x="8" dy="0">./mongodb/data/db</tspan></text><text font-family="Open Sans" y="36.5" font-size="25pt" fill="#050505" font-weight="bold" transform="matrix(0.707 0.409 -0.707 0.409 0 0)" xml:space="preserve"><tspan x="8" dy="0">./mongodb/data/db</tspan></text></svg></g></g><g opacity="1"><g id="f97f98b8-352d-4bdb-ba75-d71291fa3326"><svg x="-528" y="-157" overflow="visible"><text stroke="#ffffff" stroke-width="4" font-family="Open Sans" y="36.5" font-size="25pt" fill="#050505" font-weight="bold" transform="matrix(0.707 0.409 -0.707 0.409 0 0)" xml:space="preserve"><tspan x="8" dy="0">./mongodb/initdb</tspan></text><text font-family="Open Sans" y="36.5" font-size="25pt" fill="#050505" font-weight="bold" transform="matrix(0.707 0.409 -0.707 0.409 0 0)" xml:space="preserve"><tspan x="8" dy="0">./mongodb/initdb</tspan></text></svg></g></g><g opacity="1"><g id="918bb7ee-6eb6-4044-bfd0-fd733b9f9825"><svg x="-704" y="0" overflow="visible"><text stroke="#ffffff" stroke-width="4" font-family="Open Sans" y="36.5" font-size="25pt" fill="#050505" font-weight="bold" transform="matrix(0.707 0.409 -0.707 0.409 0 0)" xml:space="preserve"><tspan x="8" dy="0">./php/log.conf</tspan></text><text font-family="Open Sans" y="36.5" font-size="25pt" fill="#050505" font-weight="bold" transform="matrix(0.707 0.409 -0.707 0.409 0 0)" xml:space="preserve"><tspan x="8" dy="0">./php/log.conf</tspan></text></svg></g></g><g opacity="1"><g id="8590847c-5f35-44f0-9a92-31f8d153d2a9"><svg x="-944" y="102" overflow="visible"><text stroke="#ffffff" stroke-width="4" font-family="Open Sans" y="36.5" font-size="25pt" fill="#050505" font-weight="bold" transform="matrix(0.707 0.409 -0.707 0.409 0 0)" xml:space="preserve"><tspan x="8" dy="0">./nginx/site.conf</tspan></text><text font-family="Open Sans" y="36.5" font-size="25pt" fill="#050505" font-weight="bold" transform="matrix(0.707 0.409 -0.707 0.409 0 0)" xml:space="preserve"><tspan x="8" dy="0">./nginx/site.conf</tspan></text></svg></g></g><g opacity="1"><g id="1d23a795-53bc-48e7-85a3-67503c632c10" transform="translate(0 0)"><svg x="-1008" y="157" overflow="visible"><text stroke="#ffffff" stroke-width="4" font-family="Open Sans" y="36.5" font-size="25pt" fill="#050505" font-weight="bold" transform="matrix(0.707 0.409 -0.707 0.409 0 0)" xml:space="preserve"><tspan x="8" dy="0">local filesystem</tspan></text><text font-family="Open Sans" y="36.5" font-size="25pt" fill="#050505" font-weight="bold" transform="matrix(0.707 0.409 -0.707 0.409 0 0)" xml:space="preserve"><tspan x="8" dy="0">local filesystem</tspan></text></svg></g></g></g><g></g></g></svg>
